%TF.GenerationSoftware,KiCad,Pcbnew,8.0.3*%
%TF.CreationDate,2024-08-26T20:28:07+08:00*%
%TF.ProjectId,bcd2civ,62636432-6369-4762-9e6b-696361645f70,rev?*%
%TF.SameCoordinates,Original*%
%TF.FileFunction,Copper,L2,Bot*%
%TF.FilePolarity,Positive*%
%FSLAX46Y46*%
G04 Gerber Fmt 4.6, Leading zero omitted, Abs format (unit mm)*
G04 Created by KiCad (PCBNEW 8.0.3) date 2024-08-26 20:28:07*
%MOMM*%
%LPD*%
G01*
G04 APERTURE LIST*
%TA.AperFunction,ComponentPad*%
%ADD10C,5.600000*%
%TD*%
%TA.AperFunction,ComponentPad*%
%ADD11R,2.500000X2.500000*%
%TD*%
%TA.AperFunction,ComponentPad*%
%ADD12C,2.500000*%
%TD*%
%TA.AperFunction,ComponentPad*%
%ADD13R,2.800000X2.800000*%
%TD*%
%TA.AperFunction,ComponentPad*%
%ADD14C,2.800000*%
%TD*%
%TA.AperFunction,ComponentPad*%
%ADD15O,1.700000X1.700000*%
%TD*%
%TA.AperFunction,ComponentPad*%
%ADD16R,1.700000X1.700000*%
%TD*%
%TA.AperFunction,ViaPad*%
%ADD17C,0.600000*%
%TD*%
%TA.AperFunction,Conductor*%
%ADD18C,0.300000*%
%TD*%
%TA.AperFunction,Conductor*%
%ADD19C,0.600000*%
%TD*%
G04 APERTURE END LIST*
D10*
%TO.P,,1*%
%TO.N,GND*%
X105000000Y-154000000D03*
%TD*%
%TO.P,,1*%
%TO.N,GND*%
X168000000Y-116000000D03*
%TD*%
%TO.P,,1*%
%TO.N,GND*%
X168000000Y-154000000D03*
%TD*%
%TO.P,,1*%
%TO.N,GND*%
X105000000Y-116000000D03*
%TD*%
D11*
%TO.P,J6,1,Pin_1*%
%TO.N,Net-(J6-Pin_1)*%
X167000000Y-129500000D03*
D12*
%TO.P,J6,2,Pin_2*%
%TO.N,GND*%
X167000000Y-124500000D03*
%TD*%
D13*
%TO.P,J4,1,Pin_1*%
%TO.N,OUT_A1*%
X127500000Y-152750000D03*
D14*
%TO.P,J4,2,Pin_2*%
%TO.N,OUT_B1*%
X132500000Y-152750000D03*
%TO.P,J4,3,Pin_3*%
%TO.N,OUT_C1*%
X137500000Y-152750000D03*
%TO.P,J4,4,Pin_4*%
%TO.N,OUT_D1*%
X142500000Y-152750000D03*
%TO.P,J4,5,Pin_5*%
%TO.N,GND*%
X147500000Y-152750000D03*
%TD*%
D13*
%TO.P,J2,1,Pin_1*%
%TO.N,Net-(J2-Pin_1)*%
X106250000Y-124500000D03*
D14*
%TO.P,J2,2,Pin_2*%
%TO.N,Net-(J2-Pin_2)*%
X106250000Y-129500000D03*
%TO.P,J2,3,Pin_3*%
%TO.N,Net-(J2-Pin_3)*%
X106250000Y-134500000D03*
%TO.P,J2,4,Pin_4*%
%TO.N,Net-(J2-Pin_4)*%
X106250000Y-139500000D03*
%TO.P,J2,5,Pin_5*%
%TO.N,GND*%
X106250000Y-144500000D03*
%TD*%
D13*
%TO.P,J5,1,Pin_1*%
%TO.N,OUT_A2*%
X127500000Y-119500000D03*
D14*
%TO.P,J5,2,Pin_2*%
%TO.N,OUT_B2*%
X132500000Y-119500000D03*
%TO.P,J5,3,Pin_3*%
%TO.N,OUT_C2*%
X137500000Y-119500000D03*
%TO.P,J5,4,Pin_4*%
%TO.N,OUT_D2*%
X142500000Y-119500000D03*
%TO.P,J5,5,Pin_5*%
%TO.N,GND*%
X147500000Y-119500000D03*
%TD*%
D15*
%TO.P,J3,3,Pin_3*%
%TO.N,GND*%
X137000000Y-130000000D03*
%TO.P,J3,2,Pin_2*%
%TO.N,SWD*%
X137000000Y-132540000D03*
D16*
%TO.P,J3,1,Pin_1*%
%TO.N,+5V*%
X137000000Y-135080000D03*
%TD*%
D11*
%TO.P,J1,1,Pin_1*%
%TO.N,Net-(D1-A)*%
X167000000Y-144500000D03*
D12*
%TO.P,J1,2,Pin_2*%
%TO.N,GND*%
X167000000Y-139500000D03*
%TD*%
D17*
%TO.N,BAND_B*%
X113500000Y-150000000D03*
%TO.N,BAND_C*%
X114000000Y-142000000D03*
%TO.N,D*%
X146000000Y-135000000D03*
%TO.N,GND*%
X144350000Y-131500000D03*
%TO.N,A*%
X151500000Y-134500000D03*
X148000000Y-143500000D03*
%TO.N,GND*%
X147000000Y-144000000D03*
%TO.N,C*%
X149372464Y-131872464D03*
X147599605Y-133645324D03*
X142000000Y-135000000D03*
%TO.N,B*%
X148500000Y-136500000D03*
X139000000Y-135000000D03*
%TO.N,D*%
X147500000Y-138350000D03*
X148800003Y-142000000D03*
%TO.N,C*%
X147500000Y-139650000D03*
X149000000Y-141000000D03*
%TO.N,A*%
X148500000Y-135000000D03*
X148290380Y-130209620D03*
%TO.N,+5V*%
X149911858Y-129225000D03*
X158500000Y-120500000D03*
%TO.N,Net-(U2-PD7)*%
X147500000Y-132500000D03*
X146500000Y-126000000D03*
%TO.N,+5V*%
X137500000Y-144000000D03*
X122000000Y-145000000D03*
%TO.N,Net-(D1-A)*%
X162000000Y-147000000D03*
%TO.N,Net-(D1-K)*%
X164500000Y-142000000D03*
X165500000Y-137000000D03*
%TO.N,CI-V*%
X145000000Y-133500000D03*
X145000000Y-127500000D03*
%TO.N,GND*%
X160000000Y-124000000D03*
%TO.N,Net-(J2-Pin_3)*%
X114500000Y-136500000D03*
%TO.N,Net-(J2-Pin_2)*%
X115000000Y-133000000D03*
%TO.N,Net-(J2-Pin_1)*%
X115000000Y-129500000D03*
%TO.N,BAND_D*%
X139000000Y-130000000D03*
X122500000Y-128500000D03*
%TO.N,BAND_C*%
X131649999Y-124430762D03*
X124500000Y-125500000D03*
%TO.N,BAND_B*%
X131650000Y-122500000D03*
X124000000Y-122500000D03*
%TO.N,Net-(U3-2Y0)*%
X148000000Y-142000000D03*
X123000000Y-137500000D03*
%TO.N,Net-(U3-2Y1)*%
X145000000Y-140500000D03*
X126500000Y-137500000D03*
%TO.N,Net-(U3-2Y2)*%
X148500000Y-137500000D03*
X131500000Y-137000000D03*
%TO.N,Net-(U3-2Y3)*%
X136000000Y-137000000D03*
X147503031Y-137502132D03*
%TO.N,Net-(U3-1Y0)*%
X141875000Y-142294238D03*
X124500000Y-138000000D03*
%TO.N,Net-(U3-1Y1)*%
X142000000Y-140500000D03*
X128000000Y-138000000D03*
%TO.N,Net-(U3-1Y2)*%
X132500000Y-138000000D03*
X142000000Y-139000000D03*
%TO.N,Net-(U3-1Y3)*%
X142000000Y-137650000D03*
X135000000Y-138000000D03*
%TO.N,BAND_A*%
X116975000Y-156500000D03*
%TO.N,OUT_D2*%
X135000000Y-132000000D03*
%TO.N,OUT_C2*%
X131500000Y-132500000D03*
%TO.N,Net-(D1-K)*%
X163000000Y-155500000D03*
X163000000Y-153500000D03*
%TD*%
D18*
%TO.N,BAND_B*%
X121000000Y-124000000D02*
X122500000Y-124000000D01*
X120500000Y-124500000D02*
X121000000Y-124000000D01*
X120500000Y-132500000D02*
X120500000Y-124500000D01*
X111500000Y-141500000D02*
X120500000Y-132500000D01*
X113500000Y-143500000D02*
X111500000Y-141500000D01*
X113500000Y-150000000D02*
X113500000Y-143500000D01*
X122500000Y-124000000D02*
X124000000Y-122500000D01*
%TO.N,BAND_C*%
X121850000Y-128150000D02*
X124500000Y-125500000D01*
X114000000Y-142000000D02*
X121850000Y-134150000D01*
X121850000Y-134150000D02*
X121850000Y-128150000D01*
%TO.N,D*%
X149265380Y-138350000D02*
X149615380Y-138000000D01*
X147500000Y-138350000D02*
X149265380Y-138350000D01*
%TO.N,Net-(U3-2Y2)*%
X148500000Y-137500000D02*
X147350000Y-136350000D01*
X132150000Y-136350000D02*
X131500000Y-137000000D01*
X147350000Y-136350000D02*
X132150000Y-136350000D01*
%TO.N,D*%
X149615380Y-136615380D02*
X149615380Y-138000000D01*
X147764212Y-135350000D02*
X148264212Y-135850000D01*
X148264212Y-135850000D02*
X148850000Y-135850000D01*
X148850000Y-135850000D02*
X149615380Y-136615380D01*
X146350000Y-135350000D02*
X147764212Y-135350000D01*
X146000000Y-135000000D02*
X146350000Y-135350000D01*
%TO.N,B*%
X139850000Y-135850000D02*
X139000000Y-135000000D01*
X147557106Y-135850000D02*
X139850000Y-135850000D01*
X148500000Y-136500000D02*
X148207106Y-136500000D01*
X148207106Y-136500000D02*
X147557106Y-135850000D01*
%TO.N,C*%
X147094929Y-134150000D02*
X147599605Y-133645324D01*
X143472465Y-134150000D02*
X147094929Y-134150000D01*
X142622465Y-135000000D02*
X143472465Y-134150000D01*
X142000000Y-135000000D02*
X142622465Y-135000000D01*
%TO.N,GND*%
X137850000Y-129150000D02*
X137000000Y-130000000D01*
X139069239Y-129150000D02*
X137850000Y-129150000D01*
X144350000Y-131500000D02*
X141419239Y-131500000D01*
X141419239Y-131500000D02*
X139069239Y-129150000D01*
%TO.N,A*%
X151500000Y-140219242D02*
X151500000Y-134500000D01*
X148000000Y-143500000D02*
X148219242Y-143500000D01*
X148219242Y-143500000D02*
X151500000Y-140219242D01*
%TO.N,GND*%
X147000000Y-144000000D02*
X147000000Y-145000000D01*
X147500000Y-145500000D02*
X147500000Y-152750000D01*
X147000000Y-145000000D02*
X147500000Y-145500000D01*
%TO.N,Net-(U3-1Y3)*%
X142000000Y-137650000D02*
X141650000Y-138000000D01*
X141650000Y-138000000D02*
X135000000Y-138000000D01*
%TO.N,Net-(U3-1Y2)*%
X142000000Y-139000000D02*
X133500000Y-139000000D01*
X133500000Y-139000000D02*
X132500000Y-138000000D01*
%TO.N,C*%
X150150000Y-139850000D02*
X149000000Y-141000000D01*
X150150000Y-132650000D02*
X150150000Y-139850000D01*
X149372464Y-131872464D02*
X150150000Y-132650000D01*
%TO.N,D*%
X148800003Y-142000000D02*
X148800003Y-141880764D01*
X146850000Y-139000000D02*
X147500000Y-138350000D01*
X146850000Y-139930761D02*
X146850000Y-139000000D01*
X148800003Y-141880764D02*
X146850000Y-139930761D01*
%TO.N,C*%
X148850000Y-141000000D02*
X147500000Y-139650000D01*
X149000000Y-141000000D02*
X148850000Y-141000000D01*
%TO.N,A*%
X148500000Y-130000000D02*
X148290380Y-130209620D01*
X148500000Y-135000000D02*
X148500000Y-130000000D01*
%TO.N,+5V*%
X150275000Y-129225000D02*
X158500000Y-121000000D01*
X149911858Y-129225000D02*
X150275000Y-129225000D01*
X158500000Y-121000000D02*
X158500000Y-120500000D01*
%TO.N,Net-(U2-PD7)*%
X146500000Y-131500000D02*
X147500000Y-132500000D01*
X146500000Y-126000000D02*
X146500000Y-131500000D01*
%TO.N,+5V*%
X136500000Y-145000000D02*
X137500000Y-144000000D01*
X122000000Y-145000000D02*
X136500000Y-145000000D01*
%TO.N,Net-(D1-A)*%
X164500000Y-144500000D02*
X167000000Y-144500000D01*
X162000000Y-147000000D02*
X164500000Y-144500000D01*
%TO.N,Net-(D1-K)*%
X164500000Y-138000000D02*
X165500000Y-137000000D01*
X164500000Y-142000000D02*
X164500000Y-138000000D01*
%TO.N,CI-V*%
X145000000Y-127500000D02*
X145000000Y-133500000D01*
%TO.N,GND*%
X160000000Y-124000000D02*
X160500000Y-124500000D01*
X160500000Y-124500000D02*
X167000000Y-124500000D01*
%TO.N,Net-(J2-Pin_3)*%
X112500000Y-134500000D02*
X106250000Y-134500000D01*
X114500000Y-136500000D02*
X112500000Y-134500000D01*
%TO.N,Net-(J2-Pin_2)*%
X115000000Y-133000000D02*
X111500000Y-129500000D01*
X111500000Y-129500000D02*
X106250000Y-129500000D01*
%TO.N,Net-(J2-Pin_1)*%
X115000000Y-129500000D02*
X110000000Y-124500000D01*
X110000000Y-124500000D02*
X106250000Y-124500000D01*
%TO.N,GND*%
X144000000Y-116000000D02*
X147500000Y-119500000D01*
X105000000Y-116000000D02*
X144000000Y-116000000D01*
%TO.N,BAND_D*%
X137709620Y-131290380D02*
X139000000Y-130000000D01*
X136552563Y-131290380D02*
X137709620Y-131290380D01*
X135650000Y-132192943D02*
X136552563Y-131290380D01*
X135650000Y-132269239D02*
X135650000Y-132192943D01*
X133919239Y-134000000D02*
X135650000Y-132269239D01*
X133000000Y-134000000D02*
X133919239Y-134000000D01*
X122500000Y-128500000D02*
X128000000Y-134000000D01*
X128000000Y-134000000D02*
X133000000Y-134000000D01*
%TO.N,BAND_C*%
X130580761Y-125500000D02*
X131649999Y-124430762D01*
X124500000Y-125500000D02*
X130580761Y-125500000D01*
%TO.N,BAND_B*%
X124000000Y-122500000D02*
X131650000Y-122500000D01*
%TO.N,GND*%
X165150000Y-156850000D02*
X168000000Y-154000000D01*
X148500000Y-156850000D02*
X165150000Y-156850000D01*
X147500000Y-155850000D02*
X148500000Y-156850000D01*
X147500000Y-152750000D02*
X147500000Y-155850000D01*
X170500000Y-125500000D02*
X170500000Y-141500000D01*
D19*
X170500000Y-141500000D02*
X170500000Y-141000000D01*
X170500000Y-151500000D02*
X170500000Y-141500000D01*
D18*
X169500000Y-124500000D02*
X170500000Y-125500000D01*
X167000000Y-124500000D02*
X169500000Y-124500000D01*
X168000000Y-123500000D02*
X167000000Y-124500000D01*
X168000000Y-116000000D02*
X168000000Y-123500000D01*
D19*
X169000000Y-139500000D02*
X167000000Y-139500000D01*
X170500000Y-141000000D02*
X169000000Y-139500000D01*
X168000000Y-154000000D02*
X170500000Y-151500000D01*
D18*
%TO.N,Net-(U3-2Y0)*%
X123000000Y-137500000D02*
X128444238Y-142944238D01*
X128444238Y-142944238D02*
X147055762Y-142944238D01*
X147055762Y-142944238D02*
X148000000Y-142000000D01*
%TO.N,Net-(U3-2Y1)*%
X130769239Y-139850000D02*
X144350000Y-139850000D01*
X128269239Y-137350000D02*
X130769239Y-139850000D01*
X126650000Y-137350000D02*
X128269239Y-137350000D01*
X126500000Y-137500000D02*
X126650000Y-137350000D01*
X144350000Y-139850000D02*
X145000000Y-140500000D01*
%TO.N,Net-(U3-2Y3)*%
X147000899Y-137000000D02*
X147503031Y-137502132D01*
X136000000Y-137000000D02*
X147000899Y-137000000D01*
%TO.N,Net-(U3-1Y0)*%
X142000000Y-142169238D02*
X141875000Y-142294238D01*
X142000000Y-141500000D02*
X142000000Y-142169238D01*
X128000000Y-141500000D02*
X142000000Y-141500000D01*
X124500000Y-138000000D02*
X128000000Y-141500000D01*
%TO.N,Net-(U3-1Y1)*%
X130500000Y-140500000D02*
X142000000Y-140500000D01*
X128000000Y-138000000D02*
X130500000Y-140500000D01*
%TO.N,GND*%
X165500000Y-113500000D02*
X168000000Y-116000000D01*
X149500000Y-113500000D02*
X165500000Y-113500000D01*
X147500000Y-115500000D02*
X149500000Y-113500000D01*
X147500000Y-119500000D02*
X147500000Y-115500000D01*
X137000000Y-130000000D02*
X147500000Y-119500000D01*
%TO.N,OUT_D2*%
X135000000Y-127000000D02*
X142500000Y-119500000D01*
X135000000Y-132000000D02*
X135000000Y-127000000D01*
%TO.N,OUT_C2*%
X131500000Y-125500000D02*
X137500000Y-119500000D01*
X131500000Y-132500000D02*
X131500000Y-125500000D01*
%TO.N,Net-(D1-K)*%
X163000000Y-153500000D02*
X163000000Y-155500000D01*
%TD*%
%TA.AperFunction,Conductor*%
%TO.N,GND*%
G36*
X103779588Y-155042330D02*
G01*
X103957670Y-155220412D01*
X104059300Y-155294251D01*
X102847257Y-156506294D01*
X102860495Y-156518836D01*
X103145367Y-156735388D01*
X103145370Y-156735390D01*
X103201644Y-156769249D01*
X103248939Y-156820678D01*
X103260922Y-156889513D01*
X103233787Y-156953899D01*
X103176151Y-156993393D01*
X103137716Y-156999500D01*
X102124500Y-156999500D01*
X102057461Y-156979815D01*
X102011706Y-156927011D01*
X102000500Y-156875500D01*
X102000500Y-155860307D01*
X102020185Y-155793268D01*
X102072989Y-155747513D01*
X102142147Y-155737569D01*
X102205703Y-155766594D01*
X102227134Y-155790720D01*
X102369033Y-156000006D01*
X102369035Y-156000008D01*
X102496441Y-156150002D01*
X102496442Y-156150002D01*
X103705747Y-154940697D01*
X103779588Y-155042330D01*
G37*
%TD.AperFunction*%
%TA.AperFunction,Conductor*%
G36*
X166204755Y-113020185D02*
G01*
X166250510Y-113072989D01*
X166260454Y-113142147D01*
X166231429Y-113205703D01*
X166201644Y-113230751D01*
X166145370Y-113264609D01*
X166145367Y-113264611D01*
X165860486Y-113481170D01*
X165860485Y-113481171D01*
X165847257Y-113493702D01*
X165847256Y-113493703D01*
X167059301Y-114705748D01*
X166957670Y-114779588D01*
X166779588Y-114957670D01*
X166705748Y-115059301D01*
X165496442Y-113849995D01*
X165496441Y-113849996D01*
X165369033Y-113999992D01*
X165168218Y-114296172D01*
X165000606Y-114612322D01*
X165000597Y-114612340D01*
X164868149Y-114944760D01*
X164868147Y-114944767D01*
X164772421Y-115289542D01*
X164772415Y-115289568D01*
X164714527Y-115642668D01*
X164714526Y-115642685D01*
X164695153Y-115999997D01*
X164695153Y-116000002D01*
X164714526Y-116357314D01*
X164714527Y-116357331D01*
X164772415Y-116710431D01*
X164772421Y-116710457D01*
X164868147Y-117055232D01*
X164868149Y-117055239D01*
X165000597Y-117387659D01*
X165000606Y-117387677D01*
X165168218Y-117703827D01*
X165369024Y-117999994D01*
X165369035Y-118000008D01*
X165496441Y-118150002D01*
X165496442Y-118150002D01*
X166705747Y-116940697D01*
X166779588Y-117042330D01*
X166957670Y-117220412D01*
X167059300Y-117294251D01*
X165847257Y-118506294D01*
X165860495Y-118518836D01*
X166145367Y-118735388D01*
X166145370Y-118735390D01*
X166451990Y-118919876D01*
X166776739Y-119070122D01*
X166776744Y-119070123D01*
X167115855Y-119184383D01*
X167465339Y-119261311D01*
X167821075Y-119299999D01*
X167821085Y-119300000D01*
X168178915Y-119300000D01*
X168178924Y-119299999D01*
X168534660Y-119261311D01*
X168884144Y-119184383D01*
X169223255Y-119070123D01*
X169223260Y-119070122D01*
X169548009Y-118919876D01*
X169854629Y-118735390D01*
X169854632Y-118735388D01*
X170139509Y-118518831D01*
X170152742Y-118506295D01*
X170152742Y-118506294D01*
X168940699Y-117294251D01*
X169042330Y-117220412D01*
X169220412Y-117042330D01*
X169294251Y-116940698D01*
X170503556Y-118150002D01*
X170630969Y-118000002D01*
X170772866Y-117790720D01*
X170826781Y-117746279D01*
X170896163Y-117738041D01*
X170958985Y-117768621D01*
X170995301Y-117828312D01*
X170999500Y-117860307D01*
X170999500Y-152139692D01*
X170979815Y-152206731D01*
X170927011Y-152252486D01*
X170857853Y-152262430D01*
X170794297Y-152233405D01*
X170772867Y-152209279D01*
X170630975Y-152000005D01*
X170630964Y-151999991D01*
X170503556Y-151849996D01*
X169294251Y-153059301D01*
X169220412Y-152957670D01*
X169042330Y-152779588D01*
X168940698Y-152705748D01*
X170152742Y-151493704D01*
X170139504Y-151481163D01*
X169854632Y-151264611D01*
X169854629Y-151264609D01*
X169548009Y-151080123D01*
X169223260Y-150929877D01*
X169223255Y-150929876D01*
X168884144Y-150815616D01*
X168534660Y-150738688D01*
X168178924Y-150700000D01*
X167821075Y-150700000D01*
X167465339Y-150738688D01*
X167115855Y-150815616D01*
X166776744Y-150929876D01*
X166776739Y-150929877D01*
X166451990Y-151080123D01*
X166145370Y-151264609D01*
X166145367Y-151264611D01*
X165860486Y-151481170D01*
X165860485Y-151481171D01*
X165847257Y-151493702D01*
X165847256Y-151493703D01*
X167059301Y-152705748D01*
X166957670Y-152779588D01*
X166779588Y-152957670D01*
X166705748Y-153059301D01*
X165496442Y-151849995D01*
X165496441Y-151849996D01*
X165369033Y-151999992D01*
X165168218Y-152296172D01*
X165000606Y-152612322D01*
X165000597Y-152612340D01*
X164868149Y-152944760D01*
X164868147Y-152944767D01*
X164772421Y-153289542D01*
X164772415Y-153289568D01*
X164714527Y-153642668D01*
X164714526Y-153642685D01*
X164695153Y-153999997D01*
X164695153Y-154000002D01*
X164714526Y-154357314D01*
X164714527Y-154357331D01*
X164772415Y-154710431D01*
X164772421Y-154710457D01*
X164868147Y-155055232D01*
X164868149Y-155055239D01*
X165000597Y-155387659D01*
X165000606Y-155387677D01*
X165168218Y-155703827D01*
X165369024Y-155999994D01*
X165369035Y-156000008D01*
X165496441Y-156150002D01*
X165496442Y-156150002D01*
X166705747Y-154940697D01*
X166779588Y-155042330D01*
X166957670Y-155220412D01*
X167059300Y-155294251D01*
X165847257Y-156506294D01*
X165860495Y-156518836D01*
X166145367Y-156735388D01*
X166145370Y-156735390D01*
X166201644Y-156769249D01*
X166248939Y-156820678D01*
X166260922Y-156889513D01*
X166233787Y-156953899D01*
X166176151Y-156993393D01*
X166137716Y-156999500D01*
X117600082Y-156999500D01*
X117533043Y-156979815D01*
X117487288Y-156927011D01*
X117477344Y-156857853D01*
X117497141Y-156810845D01*
X117495472Y-156809881D01*
X117499534Y-156802843D01*
X117499536Y-156802841D01*
X117560044Y-156656762D01*
X117580682Y-156500000D01*
X117560044Y-156343238D01*
X117499536Y-156197159D01*
X117403282Y-156071718D01*
X117277841Y-155975464D01*
X117131762Y-155914956D01*
X117131760Y-155914955D01*
X116975001Y-155894318D01*
X116974999Y-155894318D01*
X116818239Y-155914955D01*
X116818237Y-155914956D01*
X116672160Y-155975463D01*
X116546718Y-156071718D01*
X116450463Y-156197160D01*
X116389956Y-156343237D01*
X116389955Y-156343239D01*
X116369318Y-156499998D01*
X116369318Y-156500001D01*
X116389955Y-156656760D01*
X116389956Y-156656762D01*
X116450465Y-156802843D01*
X116454528Y-156809881D01*
X116452551Y-156811022D01*
X116473489Y-156865193D01*
X116459445Y-156933637D01*
X116410627Y-156983623D01*
X116349918Y-156999500D01*
X106862284Y-156999500D01*
X106795245Y-156979815D01*
X106749490Y-156927011D01*
X106739546Y-156857853D01*
X106768571Y-156794297D01*
X106798356Y-156769249D01*
X106854629Y-156735390D01*
X106854632Y-156735388D01*
X107139509Y-156518831D01*
X107152742Y-156506295D01*
X107152742Y-156506294D01*
X105940699Y-155294251D01*
X106042330Y-155220412D01*
X106220412Y-155042330D01*
X106294251Y-154940698D01*
X107503556Y-156150002D01*
X107630972Y-155999998D01*
X107630975Y-155999994D01*
X107831781Y-155703827D01*
X107999393Y-155387677D01*
X107999402Y-155387659D01*
X108131850Y-155055239D01*
X108131852Y-155055232D01*
X108227578Y-154710457D01*
X108227584Y-154710431D01*
X108285472Y-154357331D01*
X108285473Y-154357314D01*
X108304847Y-154000002D01*
X108304847Y-153999997D01*
X108285473Y-153642685D01*
X108285472Y-153642668D01*
X108227584Y-153289568D01*
X108227578Y-153289542D01*
X108131852Y-152944767D01*
X108131850Y-152944760D01*
X107999402Y-152612340D01*
X107999393Y-152612322D01*
X107831781Y-152296172D01*
X107630975Y-152000005D01*
X107630964Y-151999991D01*
X107503556Y-151849996D01*
X106294251Y-153059301D01*
X106220412Y-152957670D01*
X106042330Y-152779588D01*
X105940698Y-152705748D01*
X107152742Y-151493704D01*
X107139504Y-151481163D01*
X106907936Y-151305131D01*
X125799500Y-151305131D01*
X125799500Y-154194856D01*
X125799502Y-154194882D01*
X125802413Y-154219987D01*
X125802415Y-154219991D01*
X125847793Y-154322764D01*
X125847794Y-154322765D01*
X125927235Y-154402206D01*
X126030009Y-154447585D01*
X126055135Y-154450500D01*
X128944864Y-154450499D01*
X128944879Y-154450497D01*
X128944882Y-154450497D01*
X128969987Y-154447586D01*
X128969988Y-154447585D01*
X128969991Y-154447585D01*
X129072765Y-154402206D01*
X129152206Y-154322765D01*
X129197585Y-154219991D01*
X129200500Y-154194865D01*
X129200499Y-152749995D01*
X130794732Y-152749995D01*
X130794732Y-152750004D01*
X130813777Y-153004154D01*
X130857829Y-153197160D01*
X130870492Y-153252637D01*
X130963607Y-153489888D01*
X131091041Y-153710612D01*
X131249950Y-153909877D01*
X131436783Y-154083232D01*
X131647366Y-154226805D01*
X131647371Y-154226807D01*
X131647372Y-154226808D01*
X131647373Y-154226809D01*
X131769328Y-154285538D01*
X131876992Y-154337387D01*
X131876993Y-154337387D01*
X131876996Y-154337389D01*
X132120542Y-154412513D01*
X132372565Y-154450500D01*
X132627435Y-154450500D01*
X132879458Y-154412513D01*
X133123004Y-154337389D01*
X133352634Y-154226805D01*
X133563217Y-154083232D01*
X133750050Y-153909877D01*
X133908959Y-153710612D01*
X134036393Y-153489888D01*
X134129508Y-153252637D01*
X134186222Y-153004157D01*
X134194453Y-152894318D01*
X134205268Y-152750004D01*
X134205268Y-152749995D01*
X135794732Y-152749995D01*
X135794732Y-152750004D01*
X135813777Y-153004154D01*
X135857829Y-153197160D01*
X135870492Y-153252637D01*
X135963607Y-153489888D01*
X136091041Y-153710612D01*
X136249950Y-153909877D01*
X136436783Y-154083232D01*
X136647366Y-154226805D01*
X136647371Y-154226807D01*
X136647372Y-154226808D01*
X136647373Y-154226809D01*
X136769328Y-154285538D01*
X136876992Y-154337387D01*
X136876993Y-154337387D01*
X136876996Y-154337389D01*
X137120542Y-154412513D01*
X137372565Y-154450500D01*
X137627435Y-154450500D01*
X137879458Y-154412513D01*
X138123004Y-154337389D01*
X138352634Y-154226805D01*
X138563217Y-154083232D01*
X138750050Y-153909877D01*
X138908959Y-153710612D01*
X139036393Y-153489888D01*
X139129508Y-153252637D01*
X139186222Y-153004157D01*
X139194453Y-152894318D01*
X139205268Y-152750004D01*
X139205268Y-152749995D01*
X140794732Y-152749995D01*
X140794732Y-152750004D01*
X140813777Y-153004154D01*
X140857829Y-153197160D01*
X140870492Y-153252637D01*
X140963607Y-153489888D01*
X141091041Y-153710612D01*
X141249950Y-153909877D01*
X141436783Y-154083232D01*
X141647366Y-154226805D01*
X141647371Y-154226807D01*
X141647372Y-154226808D01*
X141647373Y-154226809D01*
X141769328Y-154285538D01*
X141876992Y-154337387D01*
X141876993Y-154337387D01*
X141876996Y-154337389D01*
X142120542Y-154412513D01*
X142372565Y-154450500D01*
X142627435Y-154450500D01*
X142879458Y-154412513D01*
X143123004Y-154337389D01*
X143352634Y-154226805D01*
X143563217Y-154083232D01*
X143750050Y-153909877D01*
X143908959Y-153710612D01*
X144036393Y-153489888D01*
X144129508Y-153252637D01*
X144186222Y-153004157D01*
X144194453Y-152894318D01*
X144205268Y-152750004D01*
X144205268Y-152749998D01*
X145595147Y-152749998D01*
X145595147Y-152750001D01*
X145614536Y-153021090D01*
X145614537Y-153021097D01*
X145672305Y-153286654D01*
X145767285Y-153541306D01*
X145767287Y-153541310D01*
X145897532Y-153779835D01*
X145897537Y-153779843D01*
X145991321Y-153905123D01*
X145991322Y-153905124D01*
X146860690Y-153035756D01*
X146879668Y-153081574D01*
X146956274Y-153196224D01*
X147053776Y-153293726D01*
X147168426Y-153370332D01*
X147214242Y-153389309D01*
X146344874Y-154258676D01*
X146470163Y-154352466D01*
X146470164Y-154352467D01*
X146708689Y-154482712D01*
X146708693Y-154482714D01*
X146963345Y-154577694D01*
X147228902Y-154635462D01*
X147228909Y-154635463D01*
X147499999Y-154654853D01*
X147500001Y-154654853D01*
X147771090Y-154635463D01*
X147771097Y-154635462D01*
X148036654Y-154577694D01*
X148291306Y-154482714D01*
X148291310Y-154482712D01*
X148529844Y-154352462D01*
X148655123Y-154258677D01*
X148655124Y-154258676D01*
X147785757Y-153389309D01*
X147831574Y-153370332D01*
X147946224Y-153293726D01*
X148043726Y-153196224D01*
X148120332Y-153081574D01*
X148139309Y-153035757D01*
X149008676Y-153905124D01*
X149008677Y-153905123D01*
X149102462Y-153779844D01*
X149232712Y-153541310D01*
X149232714Y-153541306D01*
X149248121Y-153499998D01*
X162394318Y-153499998D01*
X162394318Y-153500001D01*
X162414955Y-153656760D01*
X162414957Y-153656765D01*
X162475461Y-153802836D01*
X162475464Y-153802841D01*
X162523876Y-153865933D01*
X162549070Y-153931102D01*
X162549500Y-153941419D01*
X162549500Y-155058580D01*
X162529815Y-155125619D01*
X162523876Y-155134066D01*
X162475464Y-155197157D01*
X162414956Y-155343237D01*
X162414955Y-155343239D01*
X162394318Y-155499998D01*
X162394318Y-155500001D01*
X162414955Y-155656760D01*
X162414956Y-155656762D01*
X162461289Y-155768621D01*
X162475464Y-155802841D01*
X162571718Y-155928282D01*
X162697159Y-156024536D01*
X162843238Y-156085044D01*
X162921619Y-156095363D01*
X162999999Y-156105682D01*
X163000000Y-156105682D01*
X163000001Y-156105682D01*
X163052254Y-156098802D01*
X163156762Y-156085044D01*
X163302841Y-156024536D01*
X163428282Y-155928282D01*
X163524536Y-155802841D01*
X163585044Y-155656762D01*
X163605682Y-155500000D01*
X163585044Y-155343238D01*
X163524536Y-155197159D01*
X163524535Y-155197158D01*
X163524535Y-155197157D01*
X163476124Y-155134066D01*
X163450930Y-155068896D01*
X163450500Y-155058580D01*
X163450500Y-153941419D01*
X163470185Y-153874380D01*
X163476124Y-153865933D01*
X163492092Y-153845121D01*
X163524536Y-153802841D01*
X163585044Y-153656762D01*
X163605682Y-153500000D01*
X163599099Y-153450000D01*
X163585044Y-153343239D01*
X163585044Y-153343238D01*
X163524536Y-153197159D01*
X163428282Y-153071718D01*
X163302841Y-152975464D01*
X163156762Y-152914956D01*
X163156760Y-152914955D01*
X163000001Y-152894318D01*
X162999999Y-152894318D01*
X162843239Y-152914955D01*
X162843237Y-152914956D01*
X162697160Y-152975463D01*
X162571718Y-153071718D01*
X162475463Y-153197160D01*
X162414956Y-153343237D01*
X162414955Y-153343239D01*
X162394318Y-153499998D01*
X149248121Y-153499998D01*
X149327694Y-153286654D01*
X149385462Y-153021097D01*
X149385463Y-153021090D01*
X149404853Y-152750001D01*
X149404853Y-152749998D01*
X149385463Y-152478909D01*
X149385462Y-152478902D01*
X149327694Y-152213345D01*
X149232714Y-151958693D01*
X149232712Y-151958689D01*
X149102467Y-151720164D01*
X149102466Y-151720163D01*
X149008676Y-151594874D01*
X148139309Y-152464242D01*
X148120332Y-152418426D01*
X148043726Y-152303776D01*
X147946224Y-152206274D01*
X147831574Y-152129668D01*
X147785757Y-152110690D01*
X148655124Y-151241322D01*
X148655123Y-151241321D01*
X148529843Y-151147537D01*
X148529835Y-151147532D01*
X148291310Y-151017287D01*
X148291306Y-151017285D01*
X148036654Y-150922305D01*
X147771097Y-150864537D01*
X147771090Y-150864536D01*
X147500001Y-150845147D01*
X147499999Y-150845147D01*
X147228909Y-150864536D01*
X147228902Y-150864537D01*
X146963345Y-150922305D01*
X146708693Y-151017285D01*
X146708689Y-151017287D01*
X146470164Y-151147532D01*
X146470156Y-151147537D01*
X146344875Y-151241321D01*
X146344874Y-151241322D01*
X147214242Y-152110690D01*
X147168426Y-152129668D01*
X147053776Y-152206274D01*
X146956274Y-152303776D01*
X146879668Y-152418426D01*
X146860690Y-152464242D01*
X145991322Y-151594874D01*
X145991321Y-151594875D01*
X145897537Y-151720156D01*
X145897532Y-151720164D01*
X145767287Y-151958689D01*
X145767285Y-151958693D01*
X145672305Y-152213345D01*
X145614537Y-152478902D01*
X145614536Y-152478909D01*
X145595147Y-152749998D01*
X144205268Y-152749998D01*
X144205268Y-152749995D01*
X144186222Y-152495845D01*
X144182356Y-152478909D01*
X144129508Y-152247363D01*
X144036393Y-152010112D01*
X143908959Y-151789388D01*
X143750050Y-151590123D01*
X143563217Y-151416768D01*
X143352634Y-151273195D01*
X143352630Y-151273193D01*
X143352627Y-151273191D01*
X143352626Y-151273190D01*
X143123006Y-151162612D01*
X143123008Y-151162612D01*
X142879466Y-151087489D01*
X142879462Y-151087488D01*
X142879458Y-151087487D01*
X142758231Y-151069214D01*
X142627440Y-151049500D01*
X142627435Y-151049500D01*
X142372565Y-151049500D01*
X142372559Y-151049500D01*
X142215609Y-151073157D01*
X142120542Y-151087487D01*
X142120539Y-151087488D01*
X142120533Y-151087489D01*
X141876992Y-151162612D01*
X141647373Y-151273190D01*
X141647372Y-151273191D01*
X141436782Y-151416768D01*
X141249952Y-151590121D01*
X141249950Y-151590123D01*
X141091041Y-151789388D01*
X140963608Y-152010109D01*
X140870492Y-152247362D01*
X140870490Y-152247369D01*
X140813777Y-152495845D01*
X140794732Y-152749995D01*
X139205268Y-152749995D01*
X139186222Y-152495845D01*
X139182356Y-152478909D01*
X139129508Y-152247363D01*
X139036393Y-152010112D01*
X138908959Y-151789388D01*
X138750050Y-151590123D01*
X138563217Y-151416768D01*
X138352634Y-151273195D01*
X138352630Y-151273193D01*
X138352627Y-151273191D01*
X138352626Y-151273190D01*
X138123006Y-151162612D01*
X138123008Y-151162612D01*
X137879466Y-151087489D01*
X137879462Y-151087488D01*
X137879458Y-151087487D01*
X137758231Y-151069214D01*
X137627440Y-151049500D01*
X137627435Y-151049500D01*
X137372565Y-151049500D01*
X137372559Y-151049500D01*
X137215609Y-151073157D01*
X137120542Y-151087487D01*
X137120539Y-151087488D01*
X137120533Y-151087489D01*
X136876992Y-151162612D01*
X136647373Y-151273190D01*
X136647372Y-151273191D01*
X136436782Y-151416768D01*
X136249952Y-151590121D01*
X136249950Y-151590123D01*
X136091041Y-151789388D01*
X135963608Y-152010109D01*
X135870492Y-152247362D01*
X135870490Y-152247369D01*
X135813777Y-152495845D01*
X135794732Y-152749995D01*
X134205268Y-152749995D01*
X134186222Y-152495845D01*
X134182356Y-152478909D01*
X134129508Y-152247363D01*
X134036393Y-152010112D01*
X133908959Y-151789388D01*
X133750050Y-151590123D01*
X133563217Y-151416768D01*
X133352634Y-151273195D01*
X133352630Y-151273193D01*
X133352627Y-151273191D01*
X133352626Y-151273190D01*
X133123006Y-151162612D01*
X133123008Y-151162612D01*
X132879466Y-151087489D01*
X132879462Y-151087488D01*
X132879458Y-151087487D01*
X132758231Y-151069214D01*
X132627440Y-151049500D01*
X132627435Y-151049500D01*
X132372565Y-151049500D01*
X132372559Y-151049500D01*
X132215609Y-151073157D01*
X132120542Y-151087487D01*
X132120539Y-151087488D01*
X132120533Y-151087489D01*
X131876992Y-151162612D01*
X131647373Y-151273190D01*
X131647372Y-151273191D01*
X131436782Y-151416768D01*
X131249952Y-151590121D01*
X131249950Y-151590123D01*
X131091041Y-151789388D01*
X130963608Y-152010109D01*
X130870492Y-152247362D01*
X130870490Y-152247369D01*
X130813777Y-152495845D01*
X130794732Y-152749995D01*
X129200499Y-152749995D01*
X129200499Y-151305136D01*
X129200497Y-151305117D01*
X129197586Y-151280012D01*
X129197585Y-151280010D01*
X129197585Y-151280009D01*
X129152206Y-151177235D01*
X129072765Y-151097794D01*
X129072763Y-151097793D01*
X128969992Y-151052415D01*
X128944865Y-151049500D01*
X126055143Y-151049500D01*
X126055117Y-151049502D01*
X126030012Y-151052413D01*
X126030008Y-151052415D01*
X125927235Y-151097793D01*
X125847794Y-151177234D01*
X125802415Y-151280006D01*
X125802415Y-151280008D01*
X125799500Y-151305131D01*
X106907936Y-151305131D01*
X106854632Y-151264611D01*
X106854629Y-151264609D01*
X106548009Y-151080123D01*
X106223260Y-150929877D01*
X106223255Y-150929876D01*
X105884144Y-150815616D01*
X105534660Y-150738688D01*
X105178924Y-150700000D01*
X104821075Y-150700000D01*
X104465339Y-150738688D01*
X104115855Y-150815616D01*
X103776744Y-150929876D01*
X103776739Y-150929877D01*
X103451990Y-151080123D01*
X103145370Y-151264609D01*
X103145367Y-151264611D01*
X102860486Y-151481170D01*
X102860485Y-151481171D01*
X102847257Y-151493702D01*
X102847256Y-151493703D01*
X104059301Y-152705748D01*
X103957670Y-152779588D01*
X103779588Y-152957670D01*
X103705748Y-153059301D01*
X102496442Y-151849995D01*
X102496441Y-151849996D01*
X102369033Y-151999992D01*
X102227133Y-152209279D01*
X102173219Y-152253720D01*
X102103837Y-152261958D01*
X102041015Y-152231377D01*
X102004699Y-152171687D01*
X102000500Y-152139692D01*
X102000500Y-144499998D01*
X104345147Y-144499998D01*
X104345147Y-144500001D01*
X104364536Y-144771090D01*
X104364537Y-144771097D01*
X104422305Y-145036654D01*
X104517285Y-145291306D01*
X104517287Y-145291310D01*
X104647532Y-145529835D01*
X104647537Y-145529843D01*
X104741321Y-145655123D01*
X104741322Y-145655124D01*
X105610690Y-144785756D01*
X105629668Y-144831574D01*
X105706274Y-144946224D01*
X105803776Y-145043726D01*
X105918426Y-145120332D01*
X105964242Y-145139309D01*
X105094874Y-146008676D01*
X105220163Y-146102466D01*
X105220164Y-146102467D01*
X105458689Y-146232712D01*
X105458693Y-146232714D01*
X105713345Y-146327694D01*
X105978902Y-146385462D01*
X105978909Y-146385463D01*
X106249999Y-146404853D01*
X106250001Y-146404853D01*
X106521090Y-146385463D01*
X106521097Y-146385462D01*
X106786654Y-146327694D01*
X107041306Y-146232714D01*
X107041310Y-146232712D01*
X107279844Y-146102462D01*
X107405123Y-146008677D01*
X107405124Y-146008676D01*
X106535757Y-145139309D01*
X106581574Y-145120332D01*
X106696224Y-145043726D01*
X106793726Y-144946224D01*
X106870332Y-144831574D01*
X106889309Y-144785757D01*
X107758676Y-145655124D01*
X107758677Y-145655123D01*
X107852462Y-145529844D01*
X107982712Y-145291310D01*
X107982714Y-145291306D01*
X108077694Y-145036654D01*
X108135462Y-144771097D01*
X108135463Y-144771090D01*
X108154853Y-144500001D01*
X108154853Y-144499998D01*
X108135463Y-144228909D01*
X108135462Y-144228902D01*
X108077694Y-143963345D01*
X107982714Y-143708693D01*
X107982712Y-143708689D01*
X107852467Y-143470164D01*
X107852466Y-143470163D01*
X107758676Y-143344874D01*
X106889309Y-144214242D01*
X106870332Y-144168426D01*
X106793726Y-144053776D01*
X106696224Y-143956274D01*
X106581574Y-143879668D01*
X106535757Y-143860690D01*
X107405124Y-142991322D01*
X107405123Y-142991321D01*
X107279843Y-142897537D01*
X107279835Y-142897532D01*
X107041310Y-142767287D01*
X107041306Y-142767285D01*
X106786654Y-142672305D01*
X106521097Y-142614537D01*
X106521090Y-142614536D01*
X106250001Y-142595147D01*
X106249999Y-142595147D01*
X105978909Y-142614536D01*
X105978902Y-142614537D01*
X105713345Y-142672305D01*
X105458693Y-142767285D01*
X105458689Y-142767287D01*
X105220164Y-142897532D01*
X105220156Y-142897537D01*
X105094875Y-142991321D01*
X105094874Y-142991322D01*
X105964242Y-143860690D01*
X105918426Y-143879668D01*
X105803776Y-143956274D01*
X105706274Y-144053776D01*
X105629668Y-144168426D01*
X105610690Y-144214242D01*
X104741322Y-143344874D01*
X104741321Y-143344875D01*
X104647537Y-143470156D01*
X104647532Y-143470164D01*
X104517287Y-143708689D01*
X104517285Y-143708693D01*
X104422305Y-143963345D01*
X104364537Y-144228902D01*
X104364536Y-144228909D01*
X104345147Y-144499998D01*
X102000500Y-144499998D01*
X102000500Y-141440689D01*
X111049501Y-141440689D01*
X111049501Y-141559310D01*
X111080199Y-141673885D01*
X111115440Y-141734922D01*
X111139511Y-141776614D01*
X111139513Y-141776616D01*
X113013181Y-143650284D01*
X113046666Y-143711607D01*
X113049500Y-143737965D01*
X113049500Y-149558580D01*
X113029815Y-149625619D01*
X113023876Y-149634066D01*
X112975464Y-149697157D01*
X112914956Y-149843237D01*
X112914955Y-149843239D01*
X112894318Y-149999998D01*
X112894318Y-150000001D01*
X112914955Y-150156760D01*
X112914956Y-150156762D01*
X112975464Y-150302841D01*
X113071718Y-150428282D01*
X113197159Y-150524536D01*
X113343238Y-150585044D01*
X113421619Y-150595363D01*
X113499999Y-150605682D01*
X113500000Y-150605682D01*
X113500001Y-150605682D01*
X113552254Y-150598802D01*
X113656762Y-150585044D01*
X113802841Y-150524536D01*
X113928282Y-150428282D01*
X114024536Y-150302841D01*
X114085044Y-150156762D01*
X114105682Y-150000000D01*
X114085044Y-149843238D01*
X114024536Y-149697159D01*
X114024535Y-149697158D01*
X114024535Y-149697157D01*
X113976124Y-149634066D01*
X113950930Y-149568896D01*
X113950500Y-149558580D01*
X113950500Y-146999998D01*
X161394318Y-146999998D01*
X161394318Y-147000001D01*
X161414955Y-147156760D01*
X161414956Y-147156762D01*
X161475464Y-147302841D01*
X161571718Y-147428282D01*
X161697159Y-147524536D01*
X161843238Y-147585044D01*
X161921619Y-147595363D01*
X161999999Y-147605682D01*
X162000000Y-147605682D01*
X162000001Y-147605682D01*
X162052254Y-147598802D01*
X162156762Y-147585044D01*
X162302841Y-147524536D01*
X162428282Y-147428282D01*
X162524536Y-147302841D01*
X162585044Y-147156762D01*
X162595424Y-147077914D01*
X162623688Y-147014020D01*
X162630669Y-147006432D01*
X164650284Y-144986819D01*
X164711607Y-144953334D01*
X164737965Y-144950500D01*
X165325501Y-144950500D01*
X165392540Y-144970185D01*
X165438295Y-145022989D01*
X165449501Y-145074500D01*
X165449501Y-145794856D01*
X165449502Y-145794882D01*
X165452413Y-145819987D01*
X165452415Y-145819991D01*
X165497793Y-145922764D01*
X165497794Y-145922765D01*
X165577235Y-146002206D01*
X165680009Y-146047585D01*
X165705135Y-146050500D01*
X168294864Y-146050499D01*
X168294879Y-146050497D01*
X168294882Y-146050497D01*
X168319987Y-146047586D01*
X168319988Y-146047585D01*
X168319991Y-146047585D01*
X168422765Y-146002206D01*
X168502206Y-145922765D01*
X168547585Y-145819991D01*
X168550500Y-145794865D01*
X168550499Y-143205136D01*
X168549574Y-143197159D01*
X168547586Y-143180012D01*
X168547585Y-143180010D01*
X168547585Y-143180009D01*
X168502206Y-143077235D01*
X168422765Y-142997794D01*
X168408105Y-142991321D01*
X168319992Y-142952415D01*
X168294865Y-142949500D01*
X165705143Y-142949500D01*
X165705117Y-142949502D01*
X165680012Y-142952413D01*
X165680008Y-142952415D01*
X165577235Y-142997793D01*
X165497794Y-143077234D01*
X165452415Y-143180006D01*
X165452415Y-143180008D01*
X165449500Y-143205131D01*
X165449500Y-143925500D01*
X165429815Y-143992539D01*
X165377011Y-144038294D01*
X165325500Y-144049500D01*
X164440691Y-144049500D01*
X164350325Y-144073713D01*
X164350324Y-144073712D01*
X164326116Y-144080199D01*
X164326113Y-144080200D01*
X164223386Y-144139511D01*
X164223383Y-144139513D01*
X161993578Y-146369317D01*
X161932255Y-146402802D01*
X161922084Y-146404575D01*
X161843238Y-146414956D01*
X161697160Y-146475463D01*
X161571718Y-146571718D01*
X161475463Y-146697160D01*
X161414956Y-146843237D01*
X161414955Y-146843239D01*
X161394318Y-146999998D01*
X113950500Y-146999998D01*
X113950500Y-143440693D01*
X113950500Y-143440691D01*
X113919799Y-143326114D01*
X113919799Y-143326113D01*
X113860489Y-143223386D01*
X112637101Y-141999998D01*
X113394318Y-141999998D01*
X113394318Y-142000001D01*
X113414955Y-142156760D01*
X113414956Y-142156762D01*
X113471900Y-142294238D01*
X113475464Y-142302841D01*
X113571718Y-142428282D01*
X113697159Y-142524536D01*
X113843238Y-142585044D01*
X113919978Y-142595147D01*
X113999999Y-142605682D01*
X114000000Y-142605682D01*
X114000001Y-142605682D01*
X114052254Y-142598802D01*
X114156762Y-142585044D01*
X114302841Y-142524536D01*
X114428282Y-142428282D01*
X114524536Y-142302841D01*
X114585044Y-142156762D01*
X114595424Y-142077914D01*
X114623688Y-142014020D01*
X114630669Y-142006432D01*
X122210489Y-134426614D01*
X122258626Y-134343238D01*
X122269799Y-134323886D01*
X122300500Y-134209309D01*
X122300500Y-129236965D01*
X122320185Y-129169926D01*
X122372989Y-129124171D01*
X122442147Y-129114227D01*
X122505703Y-129143252D01*
X122512180Y-129149283D01*
X127723386Y-134360490D01*
X127794348Y-134401459D01*
X127826114Y-134419799D01*
X127940691Y-134450500D01*
X127940694Y-134450500D01*
X133978547Y-134450500D01*
X133978548Y-134450500D01*
X134049819Y-134431401D01*
X134068905Y-134426288D01*
X134068906Y-134426287D01*
X134068912Y-134426286D01*
X134093126Y-134419799D01*
X134195853Y-134360489D01*
X135701706Y-132854635D01*
X135763027Y-132821152D01*
X135832719Y-132826136D01*
X135888652Y-132868008D01*
X135908651Y-132908382D01*
X135922595Y-132957389D01*
X135922597Y-132957394D01*
X135922596Y-132957394D01*
X136017632Y-133148253D01*
X136063695Y-133209249D01*
X136146128Y-133318407D01*
X136303698Y-133462052D01*
X136484981Y-133574298D01*
X136683802Y-133651321D01*
X136856544Y-133683612D01*
X136918823Y-133715279D01*
X136954096Y-133775591D01*
X136951162Y-133845400D01*
X136910953Y-133902540D01*
X136846235Y-133928871D01*
X136833757Y-133929500D01*
X136105143Y-133929500D01*
X136105117Y-133929502D01*
X136080012Y-133932413D01*
X136080008Y-133932415D01*
X135977235Y-133977793D01*
X135897794Y-134057234D01*
X135852415Y-134160006D01*
X135852415Y-134160008D01*
X135850100Y-134179966D01*
X135849500Y-134185135D01*
X135849500Y-135039888D01*
X135849501Y-135775500D01*
X135829816Y-135842539D01*
X135777013Y-135888294D01*
X135725501Y-135899500D01*
X132090691Y-135899500D01*
X132000325Y-135923713D01*
X132000324Y-135923712D01*
X131976115Y-135930200D01*
X131976106Y-135930204D01*
X131873392Y-135989505D01*
X131873384Y-135989511D01*
X131493577Y-136369317D01*
X131432254Y-136402802D01*
X131422083Y-136404575D01*
X131343238Y-136414956D01*
X131197160Y-136475463D01*
X131071718Y-136571718D01*
X130975463Y-136697160D01*
X130914956Y-136843237D01*
X130914955Y-136843239D01*
X130894318Y-136999998D01*
X130894318Y-137000001D01*
X130914955Y-137156760D01*
X130914956Y-137156762D01*
X130975464Y-137302841D01*
X131071718Y-137428282D01*
X131197159Y-137524536D01*
X131343238Y-137585044D01*
X131421619Y-137595363D01*
X131499999Y-137605682D01*
X131500000Y-137605682D01*
X131500001Y-137605682D01*
X131577925Y-137595423D01*
X131656762Y-137585044D01*
X131802841Y-137524536D01*
X131802845Y-137524532D01*
X131809881Y-137520472D01*
X131811476Y-137523235D01*
X131862625Y-137503434D01*
X131931077Y-137517440D01*
X131981089Y-137566231D01*
X131996784Y-137634315D01*
X131977228Y-137688791D01*
X131979528Y-137690119D01*
X131975465Y-137697156D01*
X131914956Y-137843237D01*
X131914956Y-137843238D01*
X131894318Y-137999998D01*
X131894318Y-138000001D01*
X131914955Y-138156760D01*
X131914956Y-138156762D01*
X131962723Y-138272083D01*
X131975464Y-138302841D01*
X132071718Y-138428282D01*
X132197159Y-138524536D01*
X132343238Y-138585044D01*
X132422083Y-138595424D01*
X132485978Y-138623689D01*
X132493578Y-138630681D01*
X133050716Y-139187819D01*
X133084201Y-139249142D01*
X133079217Y-139318834D01*
X133037345Y-139374767D01*
X132971881Y-139399184D01*
X132963035Y-139399500D01*
X131007204Y-139399500D01*
X130940165Y-139379815D01*
X130919523Y-139363181D01*
X128545855Y-136989513D01*
X128545853Y-136989511D01*
X128443126Y-136930201D01*
X128404304Y-136919799D01*
X128404301Y-136919798D01*
X128372284Y-136911219D01*
X128328548Y-136899500D01*
X126590691Y-136899500D01*
X126582630Y-136900561D01*
X126582379Y-136898654D01*
X126549326Y-136900811D01*
X126500003Y-136894318D01*
X126499999Y-136894318D01*
X126343239Y-136914955D01*
X126343237Y-136914956D01*
X126197160Y-136975463D01*
X126071718Y-137071718D01*
X125975463Y-137197160D01*
X125914956Y-137343237D01*
X125914955Y-137343239D01*
X125894318Y-137499998D01*
X125894318Y-137500001D01*
X125914955Y-137656760D01*
X125914956Y-137656762D01*
X125953576Y-137750000D01*
X125975464Y-137802841D01*
X126071718Y-137928282D01*
X126197159Y-138024536D01*
X126343238Y-138085044D01*
X126421619Y-138095363D01*
X126499999Y-138105682D01*
X126500000Y-138105682D01*
X126500001Y-138105682D01*
X126563835Y-138097278D01*
X126656762Y-138085044D01*
X126802841Y-138024536D01*
X126928282Y-137928282D01*
X126989106Y-137849013D01*
X127045534Y-137807811D01*
X127087482Y-137800500D01*
X127279188Y-137800500D01*
X127346227Y-137820185D01*
X127391982Y-137872989D01*
X127402127Y-137940686D01*
X127394318Y-138000000D01*
X127394318Y-138000001D01*
X127414955Y-138156760D01*
X127414956Y-138156762D01*
X127462723Y-138272083D01*
X127475464Y-138302841D01*
X127571718Y-138428282D01*
X127697159Y-138524536D01*
X127843238Y-138585044D01*
X127922083Y-138595424D01*
X127985978Y-138623689D01*
X127993578Y-138630681D01*
X130200716Y-140837819D01*
X130234201Y-140899142D01*
X130229217Y-140968834D01*
X130187345Y-141024767D01*
X130121881Y-141049184D01*
X130113035Y-141049500D01*
X128237965Y-141049500D01*
X128170926Y-141029815D01*
X128150284Y-141013181D01*
X125130681Y-137993578D01*
X125097196Y-137932255D01*
X125095425Y-137922097D01*
X125085044Y-137843238D01*
X125024536Y-137697159D01*
X124928282Y-137571718D01*
X124802841Y-137475464D01*
X124790096Y-137470185D01*
X124656762Y-137414956D01*
X124656760Y-137414955D01*
X124500001Y-137394318D01*
X124499999Y-137394318D01*
X124343239Y-137414955D01*
X124343237Y-137414956D01*
X124197160Y-137475463D01*
X124169379Y-137496780D01*
X124071718Y-137571718D01*
X124071717Y-137571719D01*
X124071716Y-137571720D01*
X124000232Y-137664879D01*
X123943804Y-137706081D01*
X123874058Y-137710236D01*
X123814176Y-137677073D01*
X123630681Y-137493578D01*
X123597196Y-137432255D01*
X123595425Y-137422097D01*
X123585044Y-137343238D01*
X123524536Y-137197159D01*
X123428282Y-137071718D01*
X123302841Y-136975464D01*
X123173970Y-136922084D01*
X123156762Y-136914956D01*
X123156760Y-136914955D01*
X123000001Y-136894318D01*
X122999999Y-136894318D01*
X122843239Y-136914955D01*
X122843237Y-136914956D01*
X122697160Y-136975463D01*
X122571718Y-137071718D01*
X122475463Y-137197160D01*
X122414956Y-137343237D01*
X122414955Y-137343239D01*
X122394318Y-137499998D01*
X122394318Y-137500001D01*
X122414955Y-137656760D01*
X122414956Y-137656762D01*
X122453576Y-137750000D01*
X122475464Y-137802841D01*
X122571718Y-137928282D01*
X122697159Y-138024536D01*
X122843238Y-138085044D01*
X122922083Y-138095424D01*
X122985978Y-138123689D01*
X122993578Y-138130681D01*
X128167624Y-143304727D01*
X128270351Y-143364037D01*
X128294559Y-143370522D01*
X128294562Y-143370524D01*
X128294563Y-143370524D01*
X128324685Y-143378595D01*
X128384929Y-143394738D01*
X136956073Y-143394738D01*
X137023112Y-143414423D01*
X137068867Y-143467227D01*
X137078811Y-143536385D01*
X137054450Y-143594221D01*
X137006463Y-143656760D01*
X136975463Y-143697160D01*
X136914956Y-143843238D01*
X136904575Y-143922084D01*
X136876308Y-143985980D01*
X136869317Y-143993578D01*
X136349716Y-144513181D01*
X136288393Y-144546666D01*
X136262035Y-144549500D01*
X122441419Y-144549500D01*
X122374380Y-144529815D01*
X122365933Y-144523876D01*
X122302842Y-144475464D01*
X122156762Y-144414956D01*
X122156760Y-144414955D01*
X122000001Y-144394318D01*
X121999999Y-144394318D01*
X121843239Y-144414955D01*
X121843237Y-144414956D01*
X121697160Y-144475463D01*
X121571718Y-144571718D01*
X121475463Y-144697160D01*
X121414956Y-144843237D01*
X121414955Y-144843239D01*
X121394318Y-144999998D01*
X121394318Y-145000001D01*
X121414955Y-145156760D01*
X121414956Y-145156762D01*
X121475464Y-145302841D01*
X121571718Y-145428282D01*
X121697159Y-145524536D01*
X121843238Y-145585044D01*
X121921619Y-145595363D01*
X121999999Y-145605682D01*
X122000000Y-145605682D01*
X122000001Y-145605682D01*
X122052254Y-145598802D01*
X122156762Y-145585044D01*
X122302841Y-145524536D01*
X122365933Y-145476123D01*
X122431102Y-145450930D01*
X122441419Y-145450500D01*
X136559308Y-145450500D01*
X136559309Y-145450500D01*
X136649673Y-145426286D01*
X136673887Y-145419799D01*
X136776614Y-145360489D01*
X137506422Y-144630679D01*
X137567743Y-144597196D01*
X137577896Y-144595426D01*
X137656762Y-144585044D01*
X137802841Y-144524536D01*
X137928282Y-144428282D01*
X138024536Y-144302841D01*
X138085044Y-144156762D01*
X138105682Y-144000000D01*
X138099925Y-143956274D01*
X138085044Y-143843239D01*
X138085044Y-143843238D01*
X138024536Y-143697159D01*
X137945549Y-143594221D01*
X137920357Y-143529056D01*
X137934395Y-143460611D01*
X137983209Y-143410621D01*
X138043927Y-143394738D01*
X147115070Y-143394738D01*
X147115071Y-143394738D01*
X147205435Y-143370524D01*
X147229649Y-143364037D01*
X147229649Y-143364036D01*
X147237503Y-143361933D01*
X147238257Y-143364749D01*
X147293766Y-143358770D01*
X147356252Y-143390032D01*
X147391917Y-143450113D01*
X147394715Y-143496986D01*
X147394318Y-143500001D01*
X147414955Y-143656760D01*
X147414956Y-143656762D01*
X147436466Y-143708693D01*
X147475464Y-143802841D01*
X147571718Y-143928282D01*
X147697159Y-144024536D01*
X147843238Y-144085044D01*
X147921619Y-144095363D01*
X147999999Y-144105682D01*
X148000000Y-144105682D01*
X148000001Y-144105682D01*
X148052254Y-144098802D01*
X148156762Y-144085044D01*
X148302841Y-144024536D01*
X148428282Y-143928282D01*
X148452914Y-143896180D01*
X148489289Y-143864280D01*
X148495856Y-143860489D01*
X150356347Y-141999998D01*
X163894318Y-141999998D01*
X163894318Y-142000001D01*
X163914955Y-142156760D01*
X163914956Y-142156762D01*
X163971900Y-142294238D01*
X163975464Y-142302841D01*
X164071718Y-142428282D01*
X164197159Y-142524536D01*
X164343238Y-142585044D01*
X164419978Y-142595147D01*
X164499999Y-142605682D01*
X164500000Y-142605682D01*
X164500001Y-142605682D01*
X164552254Y-142598802D01*
X164656762Y-142585044D01*
X164802841Y-142524536D01*
X164928282Y-142428282D01*
X165024536Y-142302841D01*
X165085044Y-142156762D01*
X165101579Y-142031166D01*
X165105682Y-142000001D01*
X165105682Y-141999998D01*
X165085044Y-141843239D01*
X165085044Y-141843238D01*
X165024536Y-141697159D01*
X165024535Y-141697158D01*
X165024535Y-141697157D01*
X164976124Y-141634066D01*
X164950930Y-141568896D01*
X164950500Y-141558580D01*
X164950500Y-139499995D01*
X165245093Y-139499995D01*
X165245093Y-139500004D01*
X165264692Y-139761545D01*
X165264693Y-139761550D01*
X165323058Y-140017270D01*
X165418883Y-140261426D01*
X165418882Y-140261426D01*
X165550027Y-140488573D01*
X165597874Y-140548571D01*
X166398958Y-139747488D01*
X166423978Y-139807890D01*
X166495112Y-139914351D01*
X166585649Y-140004888D01*
X166692110Y-140076022D01*
X166752510Y-140101041D01*
X165950830Y-140902720D01*
X166122546Y-141019793D01*
X166122550Y-141019795D01*
X166358854Y-141133594D01*
X166358858Y-141133595D01*
X166609494Y-141210907D01*
X166609500Y-141210909D01*
X166868848Y-141249999D01*
X166868857Y-141250000D01*
X167131143Y-141250000D01*
X167131151Y-141249999D01*
X167390499Y-141210909D01*
X167390505Y-141210907D01*
X167641143Y-141133595D01*
X167877445Y-141019798D01*
X167877447Y-141019797D01*
X168049168Y-140902720D01*
X167247488Y-140101041D01*
X167307890Y-140076022D01*
X167414351Y-140004888D01*
X167504888Y-139914351D01*
X167576022Y-139807890D01*
X167601041Y-139747488D01*
X168402125Y-140548572D01*
X168449971Y-140488573D01*
X168581116Y-140261426D01*
X168676941Y-140017270D01*
X168735306Y-139761550D01*
X168735307Y-139761545D01*
X168754907Y-139500004D01*
X168754907Y-139499995D01*
X168735307Y-139238454D01*
X168735306Y-139238449D01*
X168676941Y-138982729D01*
X168581116Y-138738573D01*
X168581117Y-138738573D01*
X168449972Y-138511426D01*
X168402124Y-138451427D01*
X167601041Y-139252510D01*
X167576022Y-139192110D01*
X167504888Y-139085649D01*
X167414351Y-138995112D01*
X167307890Y-138923978D01*
X167247488Y-138898958D01*
X168049168Y-138097278D01*
X167877454Y-137980206D01*
X167877445Y-137980201D01*
X167641142Y-137866404D01*
X167641144Y-137866404D01*
X167390505Y-137789092D01*
X167390499Y-137789090D01*
X167131151Y-137750000D01*
X166868848Y-137750000D01*
X166609500Y-137789090D01*
X166609494Y-137789092D01*
X166358858Y-137866404D01*
X166358854Y-137866405D01*
X166122547Y-137980205D01*
X166122539Y-137980210D01*
X165950830Y-138097277D01*
X166752511Y-138898958D01*
X166692110Y-138923978D01*
X166585649Y-138995112D01*
X166495112Y-139085649D01*
X166423978Y-139192110D01*
X166398958Y-139252510D01*
X165597875Y-138451427D01*
X165597874Y-138451427D01*
X165550028Y-138511425D01*
X165418883Y-138738573D01*
X165323058Y-138982729D01*
X165264693Y-139238449D01*
X165264692Y-139238454D01*
X165245093Y-139499995D01*
X164950500Y-139499995D01*
X164950500Y-138237964D01*
X164970185Y-138170925D01*
X164986815Y-138150287D01*
X165506422Y-137630679D01*
X165567743Y-137597196D01*
X165577896Y-137595426D01*
X165656762Y-137585044D01*
X165802841Y-137524536D01*
X165928282Y-137428282D01*
X166024536Y-137302841D01*
X166085044Y-137156762D01*
X166105682Y-137000000D01*
X166104301Y-136989513D01*
X166085044Y-136843239D01*
X166085044Y-136843238D01*
X166024536Y-136697159D01*
X165928282Y-136571718D01*
X165802841Y-136475464D01*
X165656762Y-136414956D01*
X165656760Y-136414955D01*
X165500001Y-136394318D01*
X165499999Y-136394318D01*
X165343239Y-136414955D01*
X165343237Y-136414956D01*
X165197160Y-136475463D01*
X165071718Y-136571718D01*
X164975463Y-136697160D01*
X164914956Y-136843238D01*
X164904575Y-136922084D01*
X164876308Y-136985980D01*
X164869317Y-136993578D01*
X164139513Y-137723383D01*
X164139509Y-137723389D01*
X164080201Y-137826112D01*
X164077154Y-137837487D01*
X164075613Y-137843238D01*
X164049502Y-137940686D01*
X164049500Y-137940692D01*
X164049500Y-141558580D01*
X164029815Y-141625619D01*
X164023876Y-141634066D01*
X163975464Y-141697157D01*
X163914956Y-141843237D01*
X163914955Y-141843239D01*
X163894318Y-141999998D01*
X150356347Y-141999998D01*
X151860489Y-140495856D01*
X151919798Y-140393129D01*
X151919799Y-140393128D01*
X151950500Y-140278551D01*
X151950500Y-134941419D01*
X151970185Y-134874380D01*
X151976124Y-134865933D01*
X151993541Y-134843234D01*
X152024536Y-134802841D01*
X152085044Y-134656762D01*
X152104301Y-134510489D01*
X152105682Y-134500001D01*
X152105682Y-134499998D01*
X152085044Y-134343238D01*
X152085043Y-134343236D01*
X152044702Y-134245845D01*
X152024536Y-134197159D01*
X151928282Y-134071718D01*
X151802841Y-133975464D01*
X151791588Y-133970803D01*
X151656762Y-133914956D01*
X151656760Y-133914955D01*
X151500001Y-133894318D01*
X151499999Y-133894318D01*
X151343239Y-133914955D01*
X151343237Y-133914956D01*
X151197160Y-133975463D01*
X151071718Y-134071718D01*
X150975463Y-134197160D01*
X150914957Y-134343236D01*
X150914956Y-134343238D01*
X150894318Y-134499998D01*
X150894318Y-134500001D01*
X150914955Y-134656760D01*
X150914957Y-134656765D01*
X150975461Y-134802836D01*
X150975464Y-134802841D01*
X151023876Y-134865933D01*
X151049070Y-134931102D01*
X151049500Y-134941419D01*
X151049500Y-139981276D01*
X151029815Y-140048315D01*
X151013181Y-140068957D01*
X149785195Y-141296943D01*
X149723872Y-141330428D01*
X149654180Y-141325444D01*
X149598247Y-141283572D01*
X149573830Y-141218108D01*
X149582952Y-141161811D01*
X149585044Y-141156762D01*
X149595424Y-141077915D01*
X149623688Y-141014021D01*
X149630669Y-141006433D01*
X150510490Y-140126614D01*
X150569799Y-140023886D01*
X150575495Y-140002630D01*
X150578861Y-139990069D01*
X150586781Y-139960508D01*
X150600500Y-139909309D01*
X150600500Y-132590691D01*
X150576199Y-132500000D01*
X150569799Y-132476113D01*
X150510489Y-132373386D01*
X150003145Y-131866042D01*
X149969660Y-131804719D01*
X149967889Y-131794561D01*
X149957508Y-131715702D01*
X149897000Y-131569623D01*
X149800746Y-131444182D01*
X149675305Y-131347928D01*
X149641006Y-131333721D01*
X149529226Y-131287420D01*
X149529224Y-131287419D01*
X149372465Y-131266782D01*
X149372463Y-131266782D01*
X149215703Y-131287419D01*
X149215698Y-131287421D01*
X149121952Y-131326252D01*
X149052483Y-131333721D01*
X148990004Y-131302446D01*
X148954352Y-131242357D01*
X148950500Y-131211691D01*
X148950500Y-129940693D01*
X148950500Y-129940691D01*
X148919799Y-129826114D01*
X148860489Y-129723387D01*
X148776613Y-129639511D01*
X148673886Y-129580201D01*
X148559309Y-129549500D01*
X148440691Y-129549500D01*
X148372604Y-129567744D01*
X148326109Y-129580202D01*
X148326106Y-129580203D01*
X148304771Y-129592522D01*
X148258958Y-129608074D01*
X148167172Y-129620158D01*
X148133618Y-129624576D01*
X148133617Y-129624576D01*
X147987540Y-129685083D01*
X147862098Y-129781338D01*
X147765843Y-129906780D01*
X147705336Y-130052857D01*
X147705335Y-130052859D01*
X147684698Y-130209618D01*
X147684698Y-130209621D01*
X147705335Y-130366380D01*
X147705336Y-130366382D01*
X147765844Y-130512461D01*
X147862098Y-130637902D01*
X147987539Y-130734156D01*
X147987540Y-130734156D01*
X147993988Y-130739104D01*
X147993207Y-130740121D01*
X148035710Y-130784690D01*
X148049500Y-130841520D01*
X148049500Y-131913284D01*
X148029815Y-131980323D01*
X147977011Y-132026078D01*
X147907853Y-132036022D01*
X147850015Y-132011661D01*
X147802841Y-131975464D01*
X147656761Y-131914955D01*
X147577915Y-131904575D01*
X147514018Y-131876308D01*
X147506420Y-131869317D01*
X146986819Y-131349716D01*
X146953334Y-131288393D01*
X146950500Y-131262035D01*
X146950500Y-129224998D01*
X149306176Y-129224998D01*
X149306176Y-129225001D01*
X149326813Y-129381760D01*
X149326814Y-129381762D01*
X149378449Y-129506421D01*
X149387322Y-129527841D01*
X149483576Y-129653282D01*
X149609017Y-129749536D01*
X149755096Y-129810044D01*
X149833477Y-129820363D01*
X149911857Y-129830682D01*
X149911858Y-129830682D01*
X149911859Y-129830682D01*
X149964112Y-129823802D01*
X150068620Y-129810044D01*
X150214699Y-129749536D01*
X150280038Y-129699399D01*
X150327077Y-129679916D01*
X150326458Y-129677604D01*
X150424666Y-129651288D01*
X150424667Y-129651287D01*
X150424673Y-129651286D01*
X150448887Y-129644799D01*
X150551614Y-129585489D01*
X151931972Y-128205131D01*
X165449500Y-128205131D01*
X165449500Y-130794856D01*
X165449502Y-130794882D01*
X165452413Y-130819987D01*
X165452415Y-130819991D01*
X165497793Y-130922764D01*
X165497794Y-130922765D01*
X165577235Y-131002206D01*
X165680009Y-131047585D01*
X165705135Y-131050500D01*
X168294864Y-131050499D01*
X168294879Y-131050497D01*
X168294882Y-131050497D01*
X168319987Y-131047586D01*
X168319988Y-131047585D01*
X168319991Y-131047585D01*
X168422765Y-131002206D01*
X168502206Y-130922765D01*
X168547585Y-130819991D01*
X168550500Y-130794865D01*
X168550499Y-128205136D01*
X168549574Y-128197159D01*
X168547586Y-128180012D01*
X168547585Y-128180010D01*
X168547585Y-128180009D01*
X168502206Y-128077235D01*
X168422765Y-127997794D01*
X168422763Y-127997793D01*
X168319992Y-127952415D01*
X168294865Y-127949500D01*
X165705143Y-127949500D01*
X165705117Y-127949502D01*
X165680012Y-127952413D01*
X165680008Y-127952415D01*
X165577235Y-127997793D01*
X165497794Y-128077234D01*
X165452415Y-128180006D01*
X165452415Y-128180008D01*
X165449500Y-128205131D01*
X151931972Y-128205131D01*
X155637108Y-124499995D01*
X165245093Y-124499995D01*
X165245093Y-124500004D01*
X165264692Y-124761545D01*
X165264693Y-124761550D01*
X165323058Y-125017270D01*
X165418883Y-125261426D01*
X165418882Y-125261426D01*
X165550027Y-125488573D01*
X165597874Y-125548571D01*
X166398958Y-124747488D01*
X166423978Y-124807890D01*
X166495112Y-124914351D01*
X166585649Y-125004888D01*
X166692110Y-125076022D01*
X166752510Y-125101041D01*
X165950830Y-125902720D01*
X166122546Y-126019793D01*
X166122550Y-126019795D01*
X166358854Y-126133594D01*
X166358858Y-126133595D01*
X166609494Y-126210907D01*
X166609500Y-126210909D01*
X166868848Y-126249999D01*
X166868857Y-126250000D01*
X167131143Y-126250000D01*
X167131151Y-126249999D01*
X167390499Y-126210909D01*
X167390505Y-126210907D01*
X167641143Y-126133595D01*
X167877445Y-126019798D01*
X167877447Y-126019797D01*
X168049168Y-125902720D01*
X167247488Y-125101041D01*
X167307890Y-125076022D01*
X167414351Y-125004888D01*
X167504888Y-124914351D01*
X167576022Y-124807890D01*
X167601041Y-124747488D01*
X168402125Y-125548572D01*
X168449971Y-125488573D01*
X168581116Y-125261426D01*
X168676941Y-125017270D01*
X168735306Y-124761550D01*
X168735307Y-124761545D01*
X168754907Y-124500004D01*
X168754907Y-124499995D01*
X168735307Y-124238454D01*
X168735306Y-124238449D01*
X168676941Y-123982729D01*
X168581116Y-123738573D01*
X168581117Y-123738573D01*
X168449972Y-123511426D01*
X168402124Y-123451427D01*
X167601041Y-124252510D01*
X167576022Y-124192110D01*
X167504888Y-124085649D01*
X167414351Y-123995112D01*
X167307890Y-123923978D01*
X167247488Y-123898958D01*
X168049168Y-123097278D01*
X167877454Y-122980206D01*
X167877445Y-122980201D01*
X167641142Y-122866404D01*
X167641144Y-122866404D01*
X167390505Y-122789092D01*
X167390499Y-122789090D01*
X167131151Y-122750000D01*
X166868848Y-122750000D01*
X166609500Y-122789090D01*
X166609494Y-122789092D01*
X166358858Y-122866404D01*
X166358854Y-122866405D01*
X166122547Y-122980205D01*
X166122539Y-122980210D01*
X165950830Y-123097277D01*
X166752511Y-123898958D01*
X166692110Y-123923978D01*
X166585649Y-123995112D01*
X166495112Y-124085649D01*
X166423978Y-124192110D01*
X166398958Y-124252510D01*
X165597875Y-123451427D01*
X165597874Y-123451427D01*
X165550028Y-123511425D01*
X165418883Y-123738573D01*
X165323058Y-123982729D01*
X165264693Y-124238449D01*
X165264692Y-124238454D01*
X165245093Y-124499995D01*
X155637108Y-124499995D01*
X158860490Y-121276613D01*
X158919799Y-121173886D01*
X158938074Y-121105682D01*
X158938936Y-121102467D01*
X158940112Y-121098075D01*
X158950500Y-121059309D01*
X158950500Y-120941419D01*
X158970185Y-120874380D01*
X158976124Y-120865933D01*
X159001217Y-120833231D01*
X159024536Y-120802841D01*
X159085044Y-120656762D01*
X159105682Y-120500000D01*
X159100496Y-120460612D01*
X159085044Y-120343239D01*
X159085044Y-120343238D01*
X159024536Y-120197159D01*
X158928282Y-120071718D01*
X158802841Y-119975464D01*
X158656762Y-119914956D01*
X158656760Y-119914955D01*
X158500001Y-119894318D01*
X158499999Y-119894318D01*
X158343239Y-119914955D01*
X158343237Y-119914956D01*
X158197160Y-119975463D01*
X158071718Y-120071718D01*
X157975463Y-120197160D01*
X157914956Y-120343237D01*
X157914955Y-120343239D01*
X157894318Y-120499998D01*
X157894318Y-120500001D01*
X157914955Y-120656760D01*
X157914956Y-120656762D01*
X157968533Y-120786108D01*
X157976002Y-120855578D01*
X157944727Y-120918057D01*
X157941653Y-120921242D01*
X150236327Y-128626568D01*
X150175004Y-128660053D01*
X150105312Y-128655069D01*
X150101219Y-128653458D01*
X150068620Y-128639956D01*
X150068617Y-128639955D01*
X150068618Y-128639955D01*
X149911859Y-128619318D01*
X149911857Y-128619318D01*
X149755097Y-128639955D01*
X149755095Y-128639956D01*
X149609018Y-128700463D01*
X149483576Y-128796718D01*
X149387321Y-128922160D01*
X149326814Y-129068237D01*
X149326813Y-129068239D01*
X149306176Y-129224998D01*
X146950500Y-129224998D01*
X146950500Y-126441419D01*
X146970185Y-126374380D01*
X146976124Y-126365933D01*
X146992092Y-126345121D01*
X147024536Y-126302841D01*
X147085044Y-126156762D01*
X147105682Y-126000000D01*
X147098423Y-125944865D01*
X147085044Y-125843239D01*
X147085044Y-125843238D01*
X147024536Y-125697159D01*
X146928282Y-125571718D01*
X146802841Y-125475464D01*
X146673970Y-125422084D01*
X146656762Y-125414956D01*
X146656760Y-125414955D01*
X146500001Y-125394318D01*
X146499999Y-125394318D01*
X146343239Y-125414955D01*
X146343237Y-125414956D01*
X146197160Y-125475463D01*
X146071718Y-125571718D01*
X145975463Y-125697160D01*
X145914956Y-125843237D01*
X145914955Y-125843239D01*
X145894318Y-125999998D01*
X145894318Y-126000001D01*
X145914955Y-126156760D01*
X145914957Y-126156765D01*
X145975461Y-126302836D01*
X145975464Y-126302841D01*
X146023876Y-126365933D01*
X146049070Y-126431102D01*
X146049500Y-126441419D01*
X146049500Y-131559308D01*
X146073712Y-131649672D01*
X146080200Y-131673885D01*
X146080200Y-131673886D01*
X146080201Y-131673887D01*
X146139511Y-131776614D01*
X146139513Y-131776616D01*
X146869317Y-132506420D01*
X146902802Y-132567743D01*
X146904575Y-132577915D01*
X146914955Y-132656761D01*
X146954533Y-132752310D01*
X146975464Y-132802841D01*
X147071718Y-132928282D01*
X147181474Y-133012501D01*
X147222677Y-133068928D01*
X147226832Y-133138674D01*
X147192620Y-133199594D01*
X147181479Y-133209249D01*
X147171324Y-133217041D01*
X147075068Y-133342484D01*
X147014561Y-133488562D01*
X147004180Y-133567408D01*
X146975913Y-133631304D01*
X146968924Y-133638900D01*
X146944646Y-133663179D01*
X146883324Y-133696666D01*
X146856963Y-133699500D01*
X145720812Y-133699500D01*
X145653773Y-133679815D01*
X145608018Y-133627011D01*
X145597873Y-133559314D01*
X145605682Y-133499999D01*
X145605682Y-133499998D01*
X145585044Y-133343239D01*
X145585044Y-133343238D01*
X145524536Y-133197159D01*
X145524535Y-133197158D01*
X145524535Y-133197157D01*
X145476124Y-133134066D01*
X145450930Y-133068896D01*
X145450500Y-133058580D01*
X145450500Y-127941419D01*
X145470185Y-127874380D01*
X145476124Y-127865933D01*
X145515838Y-127814176D01*
X145524536Y-127802841D01*
X145585044Y-127656762D01*
X145605682Y-127500000D01*
X145585044Y-127343238D01*
X145524536Y-127197159D01*
X145428282Y-127071718D01*
X145302841Y-126975464D01*
X145156762Y-126914956D01*
X145156760Y-126914955D01*
X145000001Y-126894318D01*
X144999999Y-126894318D01*
X144843239Y-126914955D01*
X144843237Y-126914956D01*
X144697160Y-126975463D01*
X144571718Y-127071718D01*
X144475463Y-127197160D01*
X144414956Y-127343237D01*
X144414955Y-127343239D01*
X144394318Y-127499998D01*
X144394318Y-127500001D01*
X144414955Y-127656760D01*
X144414957Y-127656765D01*
X144475461Y-127802836D01*
X144475464Y-127802841D01*
X144523876Y-127865933D01*
X144549070Y-127931102D01*
X144549500Y-127941419D01*
X144549500Y-133058580D01*
X144529815Y-133125619D01*
X144523876Y-133134066D01*
X144475464Y-133197157D01*
X144414956Y-133343237D01*
X144414955Y-133343239D01*
X144394318Y-133499998D01*
X144394318Y-133499999D01*
X144402127Y-133559314D01*
X144391362Y-133628350D01*
X144344982Y-133680606D01*
X144279188Y-133699500D01*
X143413156Y-133699500D01*
X143344409Y-133717920D01*
X143298577Y-133730201D01*
X143298572Y-133730204D01*
X143195858Y-133789505D01*
X143195850Y-133789511D01*
X142496893Y-134488468D01*
X142435570Y-134521953D01*
X142365878Y-134516969D01*
X142333725Y-134499162D01*
X142302842Y-134475464D01*
X142156762Y-134414956D01*
X142156760Y-134414955D01*
X142000001Y-134394318D01*
X141999999Y-134394318D01*
X141843239Y-134414955D01*
X141843237Y-134414956D01*
X141697160Y-134475463D01*
X141571718Y-134571718D01*
X141475463Y-134697160D01*
X141414956Y-134843237D01*
X141414955Y-134843239D01*
X141394318Y-134999998D01*
X141394318Y-135000001D01*
X141414955Y-135156760D01*
X141414957Y-135156765D01*
X141444483Y-135228048D01*
X141451952Y-135297517D01*
X141420676Y-135359996D01*
X141360587Y-135395648D01*
X141329922Y-135399500D01*
X140087965Y-135399500D01*
X140020926Y-135379815D01*
X140000284Y-135363181D01*
X139630681Y-134993578D01*
X139597196Y-134932255D01*
X139595425Y-134922097D01*
X139585044Y-134843238D01*
X139524536Y-134697159D01*
X139428282Y-134571718D01*
X139302841Y-134475464D01*
X139156762Y-134414956D01*
X139156760Y-134414955D01*
X139000001Y-134394318D01*
X138999999Y-134394318D01*
X138843239Y-134414955D01*
X138843237Y-134414956D01*
X138697160Y-134475463D01*
X138571718Y-134571718D01*
X138475463Y-134697160D01*
X138414956Y-134843237D01*
X138414956Y-134843238D01*
X138397438Y-134976297D01*
X138388314Y-134996920D01*
X138393476Y-135004953D01*
X138397438Y-135023702D01*
X138414956Y-135156761D01*
X138414956Y-135156762D01*
X138430503Y-135194297D01*
X138475464Y-135302841D01*
X138571718Y-135428282D01*
X138697159Y-135524536D01*
X138843238Y-135585044D01*
X138922083Y-135595424D01*
X138985978Y-135623689D01*
X138993578Y-135630681D01*
X139050716Y-135687819D01*
X139084201Y-135749142D01*
X139079217Y-135818834D01*
X139037345Y-135874767D01*
X138971881Y-135899184D01*
X138963035Y-135899500D01*
X138274500Y-135899500D01*
X138207461Y-135879815D01*
X138161706Y-135827011D01*
X138150500Y-135775500D01*
X138150500Y-135408625D01*
X138150499Y-135039886D01*
X138162042Y-135000574D01*
X138151980Y-134979217D01*
X138150499Y-134960111D01*
X138150499Y-134185143D01*
X138150499Y-134185137D01*
X138150499Y-134185136D01*
X138150497Y-134185117D01*
X138147586Y-134160012D01*
X138147585Y-134160010D01*
X138147585Y-134160009D01*
X138102206Y-134057235D01*
X138022765Y-133977794D01*
X137990159Y-133963397D01*
X137919992Y-133932415D01*
X137894868Y-133929500D01*
X137166243Y-133929500D01*
X137099204Y-133909815D01*
X137053449Y-133857011D01*
X137043505Y-133787853D01*
X137072530Y-133724297D01*
X137131308Y-133686523D01*
X137143441Y-133683614D01*
X137316198Y-133651321D01*
X137515019Y-133574298D01*
X137696302Y-133462052D01*
X137853872Y-133318407D01*
X137982366Y-133148255D01*
X138026172Y-133060280D01*
X138077403Y-132957394D01*
X138077403Y-132957393D01*
X138077405Y-132957389D01*
X138135756Y-132752310D01*
X138155429Y-132540000D01*
X138135756Y-132327690D01*
X138077405Y-132122611D01*
X138077403Y-132122606D01*
X138077403Y-132122605D01*
X137982367Y-131931746D01*
X137920383Y-131849667D01*
X137895691Y-131784306D01*
X137910256Y-131715971D01*
X137957335Y-131667553D01*
X137986234Y-131650869D01*
X139006422Y-130630679D01*
X139067743Y-130597196D01*
X139077896Y-130595426D01*
X139156762Y-130585044D01*
X139302841Y-130524536D01*
X139428282Y-130428282D01*
X139524536Y-130302841D01*
X139585044Y-130156762D01*
X139605682Y-130000000D01*
X139585044Y-129843238D01*
X139524536Y-129697159D01*
X139428282Y-129571718D01*
X139302841Y-129475464D01*
X139156762Y-129414956D01*
X139156760Y-129414955D01*
X139000001Y-129394318D01*
X138999999Y-129394318D01*
X138843239Y-129414955D01*
X138843237Y-129414956D01*
X138697160Y-129475463D01*
X138571715Y-129571720D01*
X138510696Y-129651242D01*
X138454268Y-129692445D01*
X138384522Y-129696599D01*
X138323602Y-129662386D01*
X138292546Y-129607848D01*
X138273433Y-129536516D01*
X138273429Y-129536507D01*
X138173600Y-129322422D01*
X138173599Y-129322420D01*
X138038113Y-129128926D01*
X138038108Y-129128920D01*
X137871082Y-128961894D01*
X137677578Y-128826399D01*
X137463492Y-128726570D01*
X137463486Y-128726567D01*
X137250000Y-128669364D01*
X137250000Y-129566988D01*
X137192993Y-129534075D01*
X137065826Y-129500000D01*
X136934174Y-129500000D01*
X136807007Y-129534075D01*
X136750000Y-129566988D01*
X136750000Y-128669364D01*
X136749999Y-128669364D01*
X136536513Y-128726567D01*
X136536507Y-128726570D01*
X136322422Y-128826399D01*
X136322420Y-128826400D01*
X136128926Y-128961886D01*
X136128920Y-128961891D01*
X135961891Y-129128920D01*
X135961886Y-129128926D01*
X135826400Y-129322420D01*
X135826399Y-129322422D01*
X135726570Y-129536507D01*
X135726566Y-129536516D01*
X135694275Y-129657031D01*
X135657910Y-129716692D01*
X135595063Y-129747221D01*
X135525687Y-129738926D01*
X135471810Y-129694441D01*
X135450535Y-129627889D01*
X135450500Y-129624938D01*
X135450500Y-127237965D01*
X135470185Y-127170926D01*
X135486819Y-127150284D01*
X138509182Y-124127921D01*
X141593883Y-121043219D01*
X141655204Y-121009736D01*
X141724896Y-121014720D01*
X141735360Y-121019180D01*
X141876996Y-121087389D01*
X142120542Y-121162513D01*
X142372565Y-121200500D01*
X142627435Y-121200500D01*
X142879458Y-121162513D01*
X143123004Y-121087389D01*
X143304458Y-121000005D01*
X143352626Y-120976809D01*
X143352626Y-120976808D01*
X143352634Y-120976805D01*
X143563217Y-120833232D01*
X143750050Y-120659877D01*
X143908959Y-120460612D01*
X144036393Y-120239888D01*
X144129508Y-120002637D01*
X144186222Y-119754157D01*
X144194384Y-119645232D01*
X144205268Y-119500004D01*
X144205268Y-119499998D01*
X145595147Y-119499998D01*
X145595147Y-119500001D01*
X145614536Y-119771090D01*
X145614537Y-119771097D01*
X145672305Y-120036654D01*
X145767285Y-120291306D01*
X145767287Y-120291310D01*
X145897532Y-120529835D01*
X145897537Y-120529843D01*
X145991321Y-120655123D01*
X145991322Y-120655124D01*
X146860690Y-119785756D01*
X146879668Y-119831574D01*
X146956274Y-119946224D01*
X147053776Y-120043726D01*
X147168426Y-120120332D01*
X147214242Y-120139309D01*
X146344874Y-121008676D01*
X146470163Y-121102466D01*
X146470164Y-121102467D01*
X146708689Y-121232712D01*
X146708693Y-121232714D01*
X146963345Y-121327694D01*
X147228902Y-121385462D01*
X147228909Y-121385463D01*
X147499999Y-121404853D01*
X147500001Y-121404853D01*
X147771090Y-121385463D01*
X147771097Y-121385462D01*
X148036654Y-121327694D01*
X148291306Y-121232714D01*
X148291310Y-121232712D01*
X148529844Y-121102462D01*
X148655123Y-121008677D01*
X148655124Y-121008676D01*
X147785757Y-120139309D01*
X147831574Y-120120332D01*
X147946224Y-120043726D01*
X148043726Y-119946224D01*
X148120332Y-119831574D01*
X148139309Y-119785757D01*
X149008676Y-120655124D01*
X149008677Y-120655123D01*
X149102462Y-120529844D01*
X149232712Y-120291310D01*
X149232714Y-120291306D01*
X149327694Y-120036654D01*
X149385462Y-119771097D01*
X149385463Y-119771090D01*
X149404853Y-119500001D01*
X149404853Y-119499998D01*
X149385463Y-119228909D01*
X149385462Y-119228902D01*
X149327694Y-118963345D01*
X149232714Y-118708693D01*
X149232712Y-118708689D01*
X149102467Y-118470164D01*
X149102466Y-118470163D01*
X149008676Y-118344874D01*
X148139309Y-119214242D01*
X148120332Y-119168426D01*
X148043726Y-119053776D01*
X147946224Y-118956274D01*
X147831574Y-118879668D01*
X147785757Y-118860690D01*
X148655124Y-117991322D01*
X148655123Y-117991321D01*
X148529843Y-117897537D01*
X148529835Y-117897532D01*
X148291310Y-117767287D01*
X148291306Y-117767285D01*
X148036654Y-117672305D01*
X147771097Y-117614537D01*
X147771090Y-117614536D01*
X147500001Y-117595147D01*
X147499999Y-117595147D01*
X147228909Y-117614536D01*
X147228902Y-117614537D01*
X146963345Y-117672305D01*
X146708693Y-117767285D01*
X146708689Y-117767287D01*
X146470164Y-117897532D01*
X146470156Y-117897537D01*
X146344875Y-117991321D01*
X146344874Y-117991322D01*
X147214242Y-118860690D01*
X147168426Y-118879668D01*
X147053776Y-118956274D01*
X146956274Y-119053776D01*
X146879668Y-119168426D01*
X146860690Y-119214242D01*
X145991322Y-118344874D01*
X145991321Y-118344875D01*
X145897537Y-118470156D01*
X145897532Y-118470164D01*
X145767287Y-118708689D01*
X145767285Y-118708693D01*
X145672305Y-118963345D01*
X145614537Y-119228902D01*
X145614536Y-119228909D01*
X145595147Y-119499998D01*
X144205268Y-119499998D01*
X144205268Y-119499995D01*
X144186222Y-119245845D01*
X144182356Y-119228909D01*
X144129508Y-118997363D01*
X144036393Y-118760112D01*
X143908959Y-118539388D01*
X143750050Y-118340123D01*
X143563217Y-118166768D01*
X143352634Y-118023195D01*
X143352630Y-118023193D01*
X143352627Y-118023191D01*
X143352626Y-118023190D01*
X143123006Y-117912612D01*
X143123008Y-117912612D01*
X142879466Y-117837489D01*
X142879462Y-117837488D01*
X142879458Y-117837487D01*
X142758231Y-117819214D01*
X142627440Y-117799500D01*
X142627435Y-117799500D01*
X142372565Y-117799500D01*
X142372559Y-117799500D01*
X142215609Y-117823157D01*
X142120542Y-117837487D01*
X142120539Y-117837488D01*
X142120533Y-117837489D01*
X141876992Y-117912612D01*
X141647373Y-118023190D01*
X141647372Y-118023191D01*
X141436782Y-118166768D01*
X141249952Y-118340121D01*
X141249950Y-118340123D01*
X141091041Y-118539388D01*
X140963608Y-118760109D01*
X140870492Y-118997362D01*
X140870490Y-118997369D01*
X140813777Y-119245845D01*
X140794732Y-119499995D01*
X140794732Y-119500004D01*
X140813777Y-119754154D01*
X140864289Y-119975463D01*
X140870492Y-120002637D01*
X140963607Y-120239888D01*
X140974377Y-120258543D01*
X140990850Y-120326441D01*
X140967998Y-120392468D01*
X140954671Y-120408223D01*
X134639513Y-126723383D01*
X134639509Y-126723389D01*
X134580201Y-126826112D01*
X134580200Y-126826117D01*
X134549500Y-126940691D01*
X134549500Y-131558580D01*
X134529815Y-131625619D01*
X134523876Y-131634066D01*
X134475464Y-131697157D01*
X134414956Y-131843237D01*
X134414955Y-131843239D01*
X134394318Y-131999998D01*
X134394318Y-132000001D01*
X134414955Y-132156760D01*
X134414956Y-132156762D01*
X134458561Y-132262035D01*
X134475464Y-132302841D01*
X134571718Y-132428282D01*
X134597248Y-132447872D01*
X134619181Y-132464702D01*
X134660383Y-132521130D01*
X134664538Y-132590876D01*
X134631375Y-132650758D01*
X133768955Y-133513181D01*
X133707632Y-133546666D01*
X133681274Y-133549500D01*
X128237966Y-133549500D01*
X128170927Y-133529815D01*
X128150285Y-133513181D01*
X123130681Y-128493578D01*
X123097196Y-128432255D01*
X123095425Y-128422097D01*
X123085044Y-128343238D01*
X123024536Y-128197159D01*
X122928282Y-128071718D01*
X122928280Y-128071717D01*
X122928280Y-128071716D01*
X122865039Y-128023190D01*
X122835119Y-128000231D01*
X122793917Y-127943805D01*
X122789762Y-127874059D01*
X122822923Y-127814178D01*
X124506422Y-126130679D01*
X124567743Y-126097196D01*
X124577896Y-126095426D01*
X124656762Y-126085044D01*
X124802841Y-126024536D01*
X124865933Y-125976123D01*
X124931102Y-125950930D01*
X124941419Y-125950500D01*
X130640069Y-125950500D01*
X130640070Y-125950500D01*
X130730434Y-125926286D01*
X130754648Y-125919799D01*
X130857375Y-125860489D01*
X130857378Y-125860485D01*
X130863499Y-125856952D01*
X130931399Y-125840479D01*
X130997426Y-125863331D01*
X131040617Y-125918252D01*
X131049500Y-125964339D01*
X131049500Y-132058580D01*
X131029815Y-132125619D01*
X131023876Y-132134066D01*
X130975464Y-132197157D01*
X130914956Y-132343237D01*
X130914955Y-132343239D01*
X130894318Y-132499998D01*
X130894318Y-132500000D01*
X130914955Y-132656760D01*
X130914956Y-132656761D01*
X130914956Y-132656762D01*
X130975464Y-132802841D01*
X131071718Y-132928282D01*
X131197159Y-133024536D01*
X131343238Y-133085044D01*
X131421619Y-133095363D01*
X131499999Y-133105682D01*
X131500000Y-133105682D01*
X131500001Y-133105682D01*
X131552254Y-133098802D01*
X131656762Y-133085044D01*
X131802841Y-133024536D01*
X131928282Y-132928282D01*
X132024536Y-132802841D01*
X132085044Y-132656762D01*
X132105682Y-132500000D01*
X132105681Y-132499995D01*
X132085044Y-132343239D01*
X132085044Y-132343238D01*
X132024536Y-132197159D01*
X132024535Y-132197158D01*
X132024535Y-132197157D01*
X131976124Y-132134066D01*
X131950930Y-132068896D01*
X131950500Y-132058580D01*
X131950500Y-125737964D01*
X131970185Y-125670925D01*
X131986814Y-125650288D01*
X136593882Y-121043219D01*
X136655203Y-121009736D01*
X136724895Y-121014720D01*
X136735362Y-121019182D01*
X136785280Y-121043221D01*
X136876992Y-121087387D01*
X136876993Y-121087387D01*
X136876996Y-121087389D01*
X137120542Y-121162513D01*
X137372565Y-121200500D01*
X137627435Y-121200500D01*
X137879458Y-121162513D01*
X138123004Y-121087389D01*
X138304458Y-121000005D01*
X138352626Y-120976809D01*
X138352626Y-120976808D01*
X138352634Y-120976805D01*
X138563217Y-120833232D01*
X138750050Y-120659877D01*
X138908959Y-120460612D01*
X139036393Y-120239888D01*
X139129508Y-120002637D01*
X139186222Y-119754157D01*
X139194384Y-119645232D01*
X139205268Y-119500004D01*
X139205268Y-119499995D01*
X139186222Y-119245845D01*
X139182356Y-119228909D01*
X139129508Y-118997363D01*
X139036393Y-118760112D01*
X138908959Y-118539388D01*
X138750050Y-118340123D01*
X138563217Y-118166768D01*
X138352634Y-118023195D01*
X138352630Y-118023193D01*
X138352627Y-118023191D01*
X138352626Y-118023190D01*
X138123006Y-117912612D01*
X138123008Y-117912612D01*
X137879466Y-117837489D01*
X137879462Y-117837488D01*
X137879458Y-117837487D01*
X137758231Y-117819214D01*
X137627440Y-117799500D01*
X137627435Y-117799500D01*
X137372565Y-117799500D01*
X137372559Y-117799500D01*
X137215609Y-117823157D01*
X137120542Y-117837487D01*
X137120539Y-117837488D01*
X137120533Y-117837489D01*
X136876992Y-117912612D01*
X136647373Y-118023190D01*
X136647372Y-118023191D01*
X136436782Y-118166768D01*
X136249952Y-118340121D01*
X136249950Y-118340123D01*
X136091041Y-118539388D01*
X135963608Y-118760109D01*
X135870492Y-118997362D01*
X135870490Y-118997369D01*
X135813777Y-119245845D01*
X135794732Y-119499995D01*
X135794732Y-119500004D01*
X135813777Y-119754154D01*
X135864289Y-119975463D01*
X135870492Y-120002637D01*
X135963607Y-120239888D01*
X135974376Y-120258541D01*
X135974379Y-120258546D01*
X135990849Y-120326447D01*
X135967995Y-120392473D01*
X135954671Y-120408224D01*
X132300757Y-124062138D01*
X132239434Y-124095623D01*
X132169742Y-124090639D01*
X132114701Y-124049943D01*
X132078281Y-124002480D01*
X131952840Y-123906226D01*
X131806761Y-123845718D01*
X131806759Y-123845717D01*
X131650000Y-123825080D01*
X131649998Y-123825080D01*
X131493238Y-123845717D01*
X131493236Y-123845718D01*
X131347159Y-123906225D01*
X131221717Y-124002480D01*
X131125462Y-124127922D01*
X131064955Y-124274000D01*
X131054574Y-124352846D01*
X131026307Y-124416742D01*
X131019316Y-124424340D01*
X130430477Y-125013181D01*
X130369154Y-125046666D01*
X130342796Y-125049500D01*
X124941419Y-125049500D01*
X124874380Y-125029815D01*
X124865933Y-125023876D01*
X124802842Y-124975464D01*
X124656762Y-124914956D01*
X124656760Y-124914955D01*
X124500001Y-124894318D01*
X124499999Y-124894318D01*
X124343239Y-124914955D01*
X124343237Y-124914956D01*
X124197160Y-124975463D01*
X124071718Y-125071718D01*
X123975463Y-125197160D01*
X123914956Y-125343238D01*
X123904575Y-125422084D01*
X123876308Y-125485980D01*
X123869317Y-125493578D01*
X121489513Y-127873383D01*
X121489509Y-127873389D01*
X121430201Y-127976112D01*
X121430200Y-127976117D01*
X121399500Y-128090691D01*
X121399500Y-133912034D01*
X121379815Y-133979073D01*
X121363181Y-133999715D01*
X113993578Y-141369317D01*
X113932255Y-141402802D01*
X113922084Y-141404575D01*
X113843238Y-141414956D01*
X113697160Y-141475463D01*
X113571718Y-141571718D01*
X113475463Y-141697160D01*
X113414956Y-141843237D01*
X113414955Y-141843239D01*
X113394318Y-141999998D01*
X112637101Y-141999998D01*
X112224784Y-141587681D01*
X112191299Y-141526358D01*
X112196283Y-141456666D01*
X112224784Y-141412319D01*
X116531421Y-137105682D01*
X120860489Y-132776614D01*
X120919799Y-132673887D01*
X120931631Y-132629728D01*
X120950500Y-132559309D01*
X120950500Y-124737965D01*
X120970185Y-124670926D01*
X120986814Y-124650288D01*
X121150286Y-124486816D01*
X121211608Y-124453334D01*
X121237966Y-124450500D01*
X122559308Y-124450500D01*
X122559309Y-124450500D01*
X122649673Y-124426286D01*
X122673887Y-124419799D01*
X122776614Y-124360489D01*
X124006422Y-123130679D01*
X124067743Y-123097196D01*
X124077896Y-123095426D01*
X124156762Y-123085044D01*
X124302841Y-123024536D01*
X124365933Y-122976123D01*
X124431102Y-122950930D01*
X124441419Y-122950500D01*
X131208581Y-122950500D01*
X131275620Y-122970185D01*
X131284067Y-122976124D01*
X131347157Y-123024535D01*
X131347158Y-123024535D01*
X131347159Y-123024536D01*
X131493238Y-123085044D01*
X131571619Y-123095363D01*
X131649999Y-123105682D01*
X131650000Y-123105682D01*
X131650001Y-123105682D01*
X131713835Y-123097278D01*
X131806762Y-123085044D01*
X131952841Y-123024536D01*
X132078282Y-122928282D01*
X132174536Y-122802841D01*
X132235044Y-122656762D01*
X132255682Y-122500000D01*
X132235044Y-122343238D01*
X132174536Y-122197159D01*
X132078282Y-122071718D01*
X131952841Y-121975464D01*
X131806762Y-121914956D01*
X131806760Y-121914955D01*
X131650001Y-121894318D01*
X131649999Y-121894318D01*
X131493239Y-121914955D01*
X131493237Y-121914956D01*
X131347157Y-121975464D01*
X131284067Y-122023876D01*
X131218898Y-122049070D01*
X131208581Y-122049500D01*
X124441419Y-122049500D01*
X124374380Y-122029815D01*
X124365933Y-122023876D01*
X124302842Y-121975464D01*
X124156762Y-121914956D01*
X124156760Y-121914955D01*
X124000001Y-121894318D01*
X123999999Y-121894318D01*
X123843239Y-121914955D01*
X123843237Y-121914956D01*
X123697160Y-121975463D01*
X123571718Y-122071718D01*
X123475463Y-122197160D01*
X123414956Y-122343238D01*
X123404575Y-122422084D01*
X123376308Y-122485980D01*
X123369317Y-122493578D01*
X122349716Y-123513181D01*
X122288393Y-123546666D01*
X122262035Y-123549500D01*
X120940691Y-123549500D01*
X120850325Y-123573713D01*
X120850324Y-123573712D01*
X120826115Y-123580200D01*
X120826106Y-123580204D01*
X120723392Y-123639505D01*
X120723384Y-123639511D01*
X120139513Y-124223383D01*
X120139509Y-124223389D01*
X120080201Y-124326112D01*
X120080200Y-124326117D01*
X120049500Y-124440691D01*
X120049500Y-132262035D01*
X120029815Y-132329074D01*
X120013181Y-132349716D01*
X111139513Y-141223383D01*
X111139511Y-141223386D01*
X111080199Y-141326114D01*
X111049501Y-141440689D01*
X102000500Y-141440689D01*
X102000500Y-139499995D01*
X104544732Y-139499995D01*
X104544732Y-139500004D01*
X104563777Y-139754154D01*
X104617623Y-139990070D01*
X104620492Y-140002637D01*
X104713607Y-140239888D01*
X104841041Y-140460612D01*
X104999950Y-140659877D01*
X105186783Y-140833232D01*
X105397366Y-140976805D01*
X105397371Y-140976807D01*
X105397372Y-140976808D01*
X105397373Y-140976809D01*
X105486642Y-141019798D01*
X105626992Y-141087387D01*
X105626993Y-141087387D01*
X105626996Y-141087389D01*
X105870542Y-141162513D01*
X106122565Y-141200500D01*
X106377435Y-141200500D01*
X106629458Y-141162513D01*
X106873004Y-141087389D01*
X107102634Y-140976805D01*
X107313217Y-140833232D01*
X107500050Y-140659877D01*
X107658959Y-140460612D01*
X107786393Y-140239888D01*
X107879508Y-140002637D01*
X107936222Y-139754157D01*
X107946739Y-139613815D01*
X107955268Y-139500004D01*
X107955268Y-139499995D01*
X107936222Y-139245845D01*
X107934535Y-139238454D01*
X107879508Y-138997363D01*
X107786393Y-138760112D01*
X107658959Y-138539388D01*
X107500050Y-138340123D01*
X107313217Y-138166768D01*
X107102634Y-138023195D01*
X107102630Y-138023193D01*
X107102627Y-138023191D01*
X107102626Y-138023190D01*
X106873006Y-137912612D01*
X106873008Y-137912612D01*
X106629466Y-137837489D01*
X106629462Y-137837488D01*
X106629458Y-137837487D01*
X106508231Y-137819214D01*
X106377440Y-137799500D01*
X106377435Y-137799500D01*
X106122565Y-137799500D01*
X106122559Y-137799500D01*
X105985331Y-137820185D01*
X105870542Y-137837487D01*
X105870539Y-137837488D01*
X105870533Y-137837489D01*
X105626992Y-137912612D01*
X105397373Y-138023190D01*
X105397372Y-138023191D01*
X105186782Y-138166768D01*
X104999952Y-138340121D01*
X104999950Y-138340123D01*
X104841041Y-138539388D01*
X104713608Y-138760109D01*
X104620492Y-138997362D01*
X104620490Y-138997369D01*
X104563777Y-139245845D01*
X104544732Y-139499995D01*
X102000500Y-139499995D01*
X102000500Y-134499995D01*
X104544732Y-134499995D01*
X104544732Y-134500004D01*
X104563777Y-134754154D01*
X104619889Y-134999998D01*
X104620492Y-135002637D01*
X104713607Y-135239888D01*
X104841041Y-135460612D01*
X104999950Y-135659877D01*
X105186783Y-135833232D01*
X105397366Y-135976805D01*
X105397371Y-135976807D01*
X105397372Y-135976808D01*
X105397373Y-135976809D01*
X105519328Y-136035538D01*
X105626992Y-136087387D01*
X105626993Y-136087387D01*
X105626996Y-136087389D01*
X105870542Y-136162513D01*
X106122565Y-136200500D01*
X106377435Y-136200500D01*
X106629458Y-136162513D01*
X106873004Y-136087389D01*
X107102634Y-135976805D01*
X107313217Y-135833232D01*
X107500050Y-135659877D01*
X107658959Y-135460612D01*
X107786393Y-135239888D01*
X107869084Y-135029197D01*
X107911900Y-134973984D01*
X107977770Y-134950683D01*
X107984512Y-134950500D01*
X112262035Y-134950500D01*
X112329074Y-134970185D01*
X112349716Y-134986819D01*
X113869317Y-136506420D01*
X113902802Y-136567743D01*
X113904575Y-136577915D01*
X113914955Y-136656761D01*
X113975463Y-136802839D01*
X113975464Y-136802841D01*
X114071718Y-136928282D01*
X114197159Y-137024536D01*
X114343238Y-137085044D01*
X114421619Y-137095363D01*
X114499999Y-137105682D01*
X114500000Y-137105682D01*
X114500001Y-137105682D01*
X114552254Y-137098802D01*
X114656762Y-137085044D01*
X114802841Y-137024536D01*
X114928282Y-136928282D01*
X115024536Y-136802841D01*
X115085044Y-136656762D01*
X115105682Y-136500000D01*
X115085044Y-136343238D01*
X115024536Y-136197159D01*
X114928282Y-136071718D01*
X114802841Y-135975464D01*
X114802839Y-135975463D01*
X114656761Y-135914955D01*
X114577915Y-135904575D01*
X114514018Y-135876308D01*
X114506420Y-135869317D01*
X112776616Y-134139513D01*
X112776614Y-134139511D01*
X112734922Y-134115440D01*
X112673885Y-134080199D01*
X112642228Y-134071718D01*
X112588172Y-134057234D01*
X112559309Y-134049500D01*
X112559308Y-134049500D01*
X107984512Y-134049500D01*
X107917473Y-134029815D01*
X107871718Y-133977011D01*
X107869084Y-133970803D01*
X107847165Y-133914955D01*
X107786393Y-133760112D01*
X107658959Y-133539388D01*
X107500050Y-133340123D01*
X107313217Y-133166768D01*
X107102634Y-133023195D01*
X107102630Y-133023193D01*
X107102627Y-133023191D01*
X107102626Y-133023190D01*
X106873006Y-132912612D01*
X106873008Y-132912612D01*
X106629466Y-132837489D01*
X106629462Y-132837488D01*
X106629458Y-132837487D01*
X106508231Y-132819214D01*
X106377440Y-132799500D01*
X106377435Y-132799500D01*
X106122565Y-132799500D01*
X106122559Y-132799500D01*
X105965609Y-132823157D01*
X105870542Y-132837487D01*
X105870539Y-132837488D01*
X105870533Y-132837489D01*
X105626992Y-132912612D01*
X105397373Y-133023190D01*
X105397372Y-133023191D01*
X105186782Y-133166768D01*
X104999952Y-133340121D01*
X104999950Y-133340123D01*
X104841041Y-133539388D01*
X104713608Y-133760109D01*
X104620492Y-133997362D01*
X104620490Y-133997369D01*
X104563777Y-134245845D01*
X104544732Y-134499995D01*
X102000500Y-134499995D01*
X102000500Y-129499995D01*
X104544732Y-129499995D01*
X104544732Y-129500004D01*
X104563777Y-129754154D01*
X104619889Y-129999998D01*
X104620492Y-130002637D01*
X104713607Y-130239888D01*
X104841041Y-130460612D01*
X104999950Y-130659877D01*
X105186783Y-130833232D01*
X105397366Y-130976805D01*
X105397371Y-130976807D01*
X105397372Y-130976808D01*
X105397373Y-130976809D01*
X105510225Y-131031155D01*
X105626992Y-131087387D01*
X105626993Y-131087387D01*
X105626996Y-131087389D01*
X105870542Y-131162513D01*
X106122565Y-131200500D01*
X106377435Y-131200500D01*
X106629458Y-131162513D01*
X106873004Y-131087389D01*
X107102634Y-130976805D01*
X107313217Y-130833232D01*
X107500050Y-130659877D01*
X107658959Y-130460612D01*
X107786393Y-130239888D01*
X107869084Y-130029197D01*
X107911900Y-129973984D01*
X107977770Y-129950683D01*
X107984512Y-129950500D01*
X111262035Y-129950500D01*
X111329074Y-129970185D01*
X111349716Y-129986819D01*
X114369317Y-133006420D01*
X114402802Y-133067743D01*
X114404575Y-133077915D01*
X114414955Y-133156761D01*
X114475463Y-133302839D01*
X114475464Y-133302841D01*
X114571718Y-133428282D01*
X114697159Y-133524536D01*
X114843238Y-133585044D01*
X114921619Y-133595363D01*
X114999999Y-133605682D01*
X115000000Y-133605682D01*
X115000001Y-133605682D01*
X115052254Y-133598802D01*
X115156762Y-133585044D01*
X115302841Y-133524536D01*
X115428282Y-133428282D01*
X115524536Y-133302841D01*
X115585044Y-133156762D01*
X115605682Y-133000000D01*
X115585044Y-132843238D01*
X115524536Y-132697159D01*
X115428282Y-132571718D01*
X115302841Y-132475464D01*
X115280469Y-132466197D01*
X115156761Y-132414955D01*
X115077915Y-132404575D01*
X115014018Y-132376308D01*
X115006420Y-132369317D01*
X111776616Y-129139513D01*
X111776614Y-129139511D01*
X111709770Y-129100918D01*
X111673885Y-129080199D01*
X111642228Y-129071718D01*
X111600768Y-129060609D01*
X111559309Y-129049500D01*
X111559308Y-129049500D01*
X107984512Y-129049500D01*
X107917473Y-129029815D01*
X107871718Y-128977011D01*
X107869084Y-128970803D01*
X107812409Y-128826400D01*
X107786393Y-128760112D01*
X107658959Y-128539388D01*
X107500050Y-128340123D01*
X107313217Y-128166768D01*
X107102634Y-128023195D01*
X107102630Y-128023193D01*
X107102627Y-128023191D01*
X107102626Y-128023190D01*
X106873006Y-127912612D01*
X106873008Y-127912612D01*
X106629466Y-127837489D01*
X106629462Y-127837488D01*
X106629458Y-127837487D01*
X106508231Y-127819214D01*
X106377440Y-127799500D01*
X106377435Y-127799500D01*
X106122565Y-127799500D01*
X106122559Y-127799500D01*
X105965609Y-127823157D01*
X105870542Y-127837487D01*
X105870539Y-127837488D01*
X105870533Y-127837489D01*
X105626992Y-127912612D01*
X105397373Y-128023190D01*
X105397372Y-128023191D01*
X105186782Y-128166768D01*
X104999952Y-128340121D01*
X104999950Y-128340123D01*
X104841041Y-128539388D01*
X104713608Y-128760109D01*
X104620492Y-128997362D01*
X104620490Y-128997369D01*
X104563777Y-129245845D01*
X104544732Y-129499995D01*
X102000500Y-129499995D01*
X102000500Y-123055131D01*
X104549500Y-123055131D01*
X104549500Y-125944856D01*
X104549502Y-125944882D01*
X104552413Y-125969987D01*
X104552415Y-125969991D01*
X104597793Y-126072764D01*
X104597794Y-126072765D01*
X104677235Y-126152206D01*
X104780009Y-126197585D01*
X104805135Y-126200500D01*
X107694864Y-126200499D01*
X107694879Y-126200497D01*
X107694882Y-126200497D01*
X107719987Y-126197586D01*
X107719988Y-126197585D01*
X107719991Y-126197585D01*
X107822765Y-126152206D01*
X107902206Y-126072765D01*
X107947585Y-125969991D01*
X107950500Y-125944865D01*
X107950500Y-125074500D01*
X107970185Y-125007461D01*
X108022989Y-124961706D01*
X108074500Y-124950500D01*
X109762035Y-124950500D01*
X109829074Y-124970185D01*
X109849716Y-124986819D01*
X114369317Y-129506421D01*
X114402802Y-129567744D01*
X114404575Y-129577916D01*
X114414955Y-129656761D01*
X114442553Y-129723387D01*
X114475464Y-129802841D01*
X114571718Y-129928282D01*
X114697159Y-130024536D01*
X114843238Y-130085044D01*
X114921619Y-130095363D01*
X114999999Y-130105682D01*
X115000000Y-130105682D01*
X115000001Y-130105682D01*
X115052254Y-130098802D01*
X115156762Y-130085044D01*
X115302841Y-130024536D01*
X115428282Y-129928282D01*
X115524536Y-129802841D01*
X115585044Y-129656762D01*
X115604837Y-129506421D01*
X115605682Y-129500001D01*
X115605682Y-129499998D01*
X115585044Y-129343239D01*
X115585044Y-129343238D01*
X115524536Y-129197159D01*
X115428282Y-129071718D01*
X115302841Y-128975464D01*
X115302839Y-128975463D01*
X115156761Y-128914955D01*
X115077916Y-128904575D01*
X115014019Y-128876308D01*
X115006421Y-128869317D01*
X110276616Y-124139513D01*
X110276614Y-124139511D01*
X110234922Y-124115440D01*
X110173885Y-124080199D01*
X110136835Y-124070273D01*
X110098071Y-124059886D01*
X110059309Y-124049500D01*
X110059308Y-124049500D01*
X108074499Y-124049500D01*
X108007460Y-124029815D01*
X107961705Y-123977011D01*
X107950499Y-123925500D01*
X107950499Y-123055143D01*
X107950499Y-123055136D01*
X107950497Y-123055117D01*
X107947586Y-123030012D01*
X107947585Y-123030010D01*
X107947585Y-123030009D01*
X107902206Y-122927235D01*
X107822765Y-122847794D01*
X107822763Y-122847793D01*
X107719992Y-122802415D01*
X107694865Y-122799500D01*
X104805143Y-122799500D01*
X104805117Y-122799502D01*
X104780012Y-122802413D01*
X104780008Y-122802415D01*
X104677235Y-122847793D01*
X104597794Y-122927234D01*
X104552415Y-123030006D01*
X104552415Y-123030008D01*
X104549500Y-123055131D01*
X102000500Y-123055131D01*
X102000500Y-117860307D01*
X102020185Y-117793268D01*
X102072989Y-117747513D01*
X102142147Y-117737569D01*
X102205703Y-117766594D01*
X102227134Y-117790720D01*
X102369033Y-118000006D01*
X102369035Y-118000008D01*
X102496441Y-118150002D01*
X102496442Y-118150002D01*
X103705747Y-116940697D01*
X103779588Y-117042330D01*
X103957670Y-117220412D01*
X104059300Y-117294251D01*
X102847257Y-118506294D01*
X102860495Y-118518836D01*
X103145367Y-118735388D01*
X103145370Y-118735390D01*
X103451990Y-118919876D01*
X103776739Y-119070122D01*
X103776744Y-119070123D01*
X104115855Y-119184383D01*
X104465339Y-119261311D01*
X104821075Y-119299999D01*
X104821085Y-119300000D01*
X105178915Y-119300000D01*
X105178924Y-119299999D01*
X105534660Y-119261311D01*
X105884144Y-119184383D01*
X106223255Y-119070123D01*
X106223260Y-119070122D01*
X106548009Y-118919876D01*
X106854629Y-118735390D01*
X106854632Y-118735388D01*
X107139509Y-118518831D01*
X107152742Y-118506295D01*
X107152742Y-118506294D01*
X105940699Y-117294251D01*
X106042330Y-117220412D01*
X106220412Y-117042330D01*
X106294251Y-116940698D01*
X107503556Y-118150002D01*
X107584141Y-118055131D01*
X125799500Y-118055131D01*
X125799500Y-120944856D01*
X125799502Y-120944882D01*
X125802413Y-120969987D01*
X125802415Y-120969991D01*
X125847793Y-121072764D01*
X125847794Y-121072765D01*
X125927235Y-121152206D01*
X126030009Y-121197585D01*
X126055135Y-121200500D01*
X128944864Y-121200499D01*
X128944879Y-121200497D01*
X128944882Y-121200497D01*
X128969987Y-121197586D01*
X128969988Y-121197585D01*
X128969991Y-121197585D01*
X129072765Y-121152206D01*
X129152206Y-121072765D01*
X129197585Y-120969991D01*
X129200500Y-120944865D01*
X129200499Y-119499995D01*
X130794732Y-119499995D01*
X130794732Y-119500004D01*
X130813777Y-119754154D01*
X130864289Y-119975463D01*
X130870492Y-120002637D01*
X130963607Y-120239888D01*
X131091041Y-120460612D01*
X131249950Y-120659877D01*
X131436783Y-120833232D01*
X131647366Y-120976805D01*
X131647371Y-120976807D01*
X131647372Y-120976808D01*
X131647373Y-120976809D01*
X131769328Y-121035538D01*
X131876992Y-121087387D01*
X131876993Y-121087387D01*
X131876996Y-121087389D01*
X132120542Y-121162513D01*
X132372565Y-121200500D01*
X132627435Y-121200500D01*
X132879458Y-121162513D01*
X133123004Y-121087389D01*
X133304458Y-121000005D01*
X133352626Y-120976809D01*
X133352626Y-120976808D01*
X133352634Y-120976805D01*
X133563217Y-120833232D01*
X133750050Y-120659877D01*
X133908959Y-120460612D01*
X134036393Y-120239888D01*
X134129508Y-120002637D01*
X134186222Y-119754157D01*
X134194384Y-119645232D01*
X134205268Y-119500004D01*
X134205268Y-119499995D01*
X134186222Y-119245845D01*
X134182356Y-119228909D01*
X134129508Y-118997363D01*
X134036393Y-118760112D01*
X133908959Y-118539388D01*
X133750050Y-118340123D01*
X133563217Y-118166768D01*
X133352634Y-118023195D01*
X133352630Y-118023193D01*
X133352627Y-118023191D01*
X133352626Y-118023190D01*
X133123006Y-117912612D01*
X133123008Y-117912612D01*
X132879466Y-117837489D01*
X132879462Y-117837488D01*
X132879458Y-117837487D01*
X132758231Y-117819214D01*
X132627440Y-117799500D01*
X132627435Y-117799500D01*
X132372565Y-117799500D01*
X132372559Y-117799500D01*
X132215609Y-117823157D01*
X132120542Y-117837487D01*
X132120539Y-117837488D01*
X132120533Y-117837489D01*
X131876992Y-117912612D01*
X131647373Y-118023190D01*
X131647372Y-118023191D01*
X131436782Y-118166768D01*
X131249952Y-118340121D01*
X131249950Y-118340123D01*
X131091041Y-118539388D01*
X130963608Y-118760109D01*
X130870492Y-118997362D01*
X130870490Y-118997369D01*
X130813777Y-119245845D01*
X130794732Y-119499995D01*
X129200499Y-119499995D01*
X129200499Y-118055136D01*
X129200497Y-118055117D01*
X129197586Y-118030012D01*
X129197585Y-118030010D01*
X129197585Y-118030009D01*
X129152206Y-117927235D01*
X129072765Y-117847794D01*
X129072763Y-117847793D01*
X128969992Y-117802415D01*
X128944865Y-117799500D01*
X126055143Y-117799500D01*
X126055117Y-117799502D01*
X126030012Y-117802413D01*
X126030008Y-117802415D01*
X125927235Y-117847793D01*
X125847794Y-117927234D01*
X125802415Y-118030006D01*
X125802415Y-118030008D01*
X125799500Y-118055131D01*
X107584141Y-118055131D01*
X107630972Y-117999998D01*
X107630975Y-117999994D01*
X107831781Y-117703827D01*
X107999393Y-117387677D01*
X107999402Y-117387659D01*
X108131850Y-117055239D01*
X108131852Y-117055232D01*
X108227578Y-116710457D01*
X108227584Y-116710431D01*
X108285472Y-116357331D01*
X108285473Y-116357314D01*
X108304847Y-116000002D01*
X108304847Y-115999997D01*
X108285473Y-115642685D01*
X108285472Y-115642668D01*
X108227584Y-115289568D01*
X108227578Y-115289542D01*
X108131852Y-114944767D01*
X108131850Y-114944760D01*
X107999402Y-114612340D01*
X107999393Y-114612322D01*
X107831781Y-114296172D01*
X107630975Y-114000005D01*
X107630964Y-113999991D01*
X107503556Y-113849996D01*
X106294251Y-115059301D01*
X106220412Y-114957670D01*
X106042330Y-114779588D01*
X105940698Y-114705748D01*
X107152742Y-113493704D01*
X107139504Y-113481163D01*
X106854632Y-113264611D01*
X106854629Y-113264609D01*
X106798356Y-113230751D01*
X106751061Y-113179322D01*
X106739078Y-113110487D01*
X106766213Y-113046101D01*
X106823849Y-113006607D01*
X106862284Y-113000500D01*
X166137716Y-113000500D01*
X166204755Y-113020185D01*
G37*
%TD.AperFunction*%
%TA.AperFunction,Conductor*%
G36*
X170503556Y-156150002D02*
G01*
X170630969Y-156000002D01*
X170772866Y-155790720D01*
X170826781Y-155746279D01*
X170896163Y-155738041D01*
X170958985Y-155768621D01*
X170995301Y-155828312D01*
X170999500Y-155860307D01*
X170999500Y-156875500D01*
X170979815Y-156942539D01*
X170927011Y-156988294D01*
X170875500Y-156999500D01*
X169862284Y-156999500D01*
X169795245Y-156979815D01*
X169749490Y-156927011D01*
X169739546Y-156857853D01*
X169768571Y-156794297D01*
X169798356Y-156769249D01*
X169854629Y-156735390D01*
X169854632Y-156735388D01*
X170139509Y-156518831D01*
X170152742Y-156506295D01*
X170152742Y-156506294D01*
X168940699Y-155294251D01*
X169042330Y-155220412D01*
X169220412Y-155042330D01*
X169294251Y-154940698D01*
X170503556Y-156150002D01*
G37*
%TD.AperFunction*%
%TA.AperFunction,Conductor*%
G36*
X103204755Y-113020185D02*
G01*
X103250510Y-113072989D01*
X103260454Y-113142147D01*
X103231429Y-113205703D01*
X103201644Y-113230751D01*
X103145370Y-113264609D01*
X103145367Y-113264611D01*
X102860486Y-113481170D01*
X102860485Y-113481171D01*
X102847257Y-113493702D01*
X102847256Y-113493703D01*
X104059301Y-114705748D01*
X103957670Y-114779588D01*
X103779588Y-114957670D01*
X103705748Y-115059301D01*
X102496442Y-113849995D01*
X102496441Y-113849996D01*
X102369033Y-113999992D01*
X102227133Y-114209279D01*
X102173219Y-114253720D01*
X102103837Y-114261958D01*
X102041015Y-114231377D01*
X102004699Y-114171687D01*
X102000500Y-114139692D01*
X102000500Y-113124500D01*
X102020185Y-113057461D01*
X102072989Y-113011706D01*
X102124500Y-113000500D01*
X103137716Y-113000500D01*
X103204755Y-113020185D01*
G37*
%TD.AperFunction*%
%TA.AperFunction,Conductor*%
G36*
X170942539Y-113020185D02*
G01*
X170988294Y-113072989D01*
X170999500Y-113124500D01*
X170999500Y-114139692D01*
X170979815Y-114206731D01*
X170927011Y-114252486D01*
X170857853Y-114262430D01*
X170794297Y-114233405D01*
X170772867Y-114209279D01*
X170630975Y-114000005D01*
X170630964Y-113999991D01*
X170503556Y-113849996D01*
X169294251Y-115059301D01*
X169220412Y-114957670D01*
X169042330Y-114779588D01*
X168940698Y-114705748D01*
X170152742Y-113493704D01*
X170139504Y-113481163D01*
X169854632Y-113264611D01*
X169854629Y-113264609D01*
X169798356Y-113230751D01*
X169751061Y-113179322D01*
X169739078Y-113110487D01*
X169766213Y-113046101D01*
X169823849Y-113006607D01*
X169862284Y-113000500D01*
X170875500Y-113000500D01*
X170942539Y-113020185D01*
G37*
%TD.AperFunction*%
%TD*%
M02*
