M48
; DRILL file {KiCad 8.0.3} date 2024-08-26T20:28:13+0800
; FORMAT={-:-/ absolute / inch / decimal}
; #@! TF.CreationDate,2024-08-26T20:28:13+08:00
; #@! TF.GenerationSoftware,Kicad,Pcbnew,8.0.3
; #@! TF.FileFunction,Plated,1,2,PTH
FMAT,2
INCH
; #@! TA.AperFunction,Plated,PTH,ViaDrill
T1C0.0118
; #@! TA.AperFunction,Plated,PTH,ComponentDrill
T2C0.0394
; #@! TA.AperFunction,Plated,PTH,ComponentDrill
T3C0.0512
; #@! TA.AperFunction,Plated,PTH,ComponentDrill
T4C0.0551
; #@! TA.AperFunction,Plated,PTH,ComponentDrill
T5C0.1260
%
G90
G05
T1
X4.4685Y-5.9055
X4.4882Y-5.5906
X4.5079Y-5.374
X4.5276Y-5.0984
X4.5276Y-5.2362
X4.6053Y-6.1614
X4.8031Y-5.7087
X4.8228Y-5.0591
X4.8425Y-5.4134
X4.8819Y-4.8228
X4.9016Y-4.9409
X4.9016Y-5.4331
X4.9803Y-5.4134
X5.0394Y-5.4331
X5.1772Y-5.2165
X5.1772Y-5.3937
X5.1831Y-4.8988
X5.1831Y-4.8228
X5.2165Y-5.4331
X5.315Y-5.1969
X5.315Y-5.4331
X5.3543Y-5.3937
X5.4134Y-5.6693
X5.4724Y-5.1181
X5.4724Y-5.315
X5.5856Y-5.6021
X5.5906Y-5.315
X5.5906Y-5.4193
X5.5906Y-5.4724
X5.5906Y-5.5315
X5.6831Y-5.1772
X5.7087Y-5.0197
X5.7087Y-5.2559
X5.7087Y-5.5315
X5.748Y-5.315
X5.7677Y-4.9606
X5.7874Y-5.6693
X5.8071Y-5.2165
X5.8071Y-5.4469
X5.8071Y-5.498
X5.8072Y-5.4135
X5.811Y-5.2616
X5.8268Y-5.5906
X5.8268Y-5.6496
X5.8382Y-5.1264
X5.8465Y-5.315
X5.8465Y-5.374
X5.8465Y-5.4134
X5.8583Y-5.5906
X5.8661Y-5.5512
X5.8808Y-5.1918
X5.902Y-5.0876
X5.9646Y-5.2953
X6.2402Y-4.7441
X6.2992Y-4.8819
X6.378Y-5.7874
X6.4173Y-6.0433
X6.4173Y-6.122
X6.4764Y-5.5906
X6.5157Y-5.3937
T2
X5.3937Y-5.1181
X5.3937Y-5.2181
X5.3937Y-5.3181
T3
X6.5748Y-4.9016
X6.5748Y-5.0984
X6.5748Y-5.4921
X6.5748Y-5.689
T4
X4.1831Y-4.9016
X4.1831Y-5.0984
X4.1831Y-5.2953
X4.1831Y-5.4921
X4.1831Y-5.689
X5.0197Y-4.7047
X5.0197Y-6.0138
X5.2165Y-4.7047
X5.2165Y-6.0138
X5.4134Y-4.7047
X5.4134Y-6.0138
X5.6102Y-4.7047
X5.6102Y-6.0138
X5.8071Y-4.7047
X5.8071Y-6.0138
T5
X4.1339Y-4.5669
X4.1339Y-6.063
X6.6142Y-4.5669
X6.6142Y-6.063
M30
